G04 Layer_Color=8388736*
%FSLAX43Y43*%
%MOMM*%
G71*
G01*
G75*
%ADD26C,1.500*%
G04:AMPARAMS|DCode=59|XSize=2.18mm|YSize=3.91mm|CornerRadius=0.31mm|HoleSize=0mm|Usage=FLASHONLY|Rotation=90.000|XOffset=0mm|YOffset=0mm|HoleType=Round|Shape=RoundedRectangle|*
%AMROUNDEDRECTD59*
21,1,2.180,3.290,0,0,90.0*
21,1,1.560,3.910,0,0,90.0*
1,1,0.620,1.645,0.780*
1,1,0.620,1.645,-0.780*
1,1,0.620,-1.645,-0.780*
1,1,0.620,-1.645,0.780*
%
%ADD59ROUNDEDRECTD59*%
G04:AMPARAMS|DCode=60|XSize=11.53mm|YSize=8.99mm|CornerRadius=1.161mm|HoleSize=0mm|Usage=FLASHONLY|Rotation=90.000|XOffset=0mm|YOffset=0mm|HoleType=Round|Shape=RoundedRectangle|*
%AMROUNDEDRECTD60*
21,1,11.530,6.668,0,0,90.0*
21,1,9.207,8.990,0,0,90.0*
1,1,2.322,3.334,4.604*
1,1,2.322,3.334,-4.604*
1,1,2.322,-3.334,-4.604*
1,1,2.322,-3.334,4.604*
%
%ADD60ROUNDEDRECTD60*%
G04:AMPARAMS|DCode=61|XSize=2.22mm|YSize=3.96mm|CornerRadius=0.315mm|HoleSize=0mm|Usage=FLASHONLY|Rotation=180.000|XOffset=0mm|YOffset=0mm|HoleType=Round|Shape=RoundedRectangle|*
%AMROUNDEDRECTD61*
21,1,2.220,3.330,0,0,180.0*
21,1,1.590,3.960,0,0,180.0*
1,1,0.630,-0.795,1.665*
1,1,0.630,0.795,1.665*
1,1,0.630,0.795,-1.665*
1,1,0.630,-0.795,-1.665*
%
%ADD61ROUNDEDRECTD61*%
%ADD62C,2.300*%
%ADD63R,2.300X2.300*%
%ADD64C,0.100*%
%ADD65C,2.000*%
%ADD66C,2.103*%
%ADD67R,2.000X2.000*%
%ADD68R,2.000X2.000*%
%ADD69R,1.500X1.500*%
%ADD70C,1.600*%
%ADD71R,1.500X1.500*%
%ADD72C,0.800*%
D26*
X32267Y6264D02*
D03*
X28267D02*
D03*
D59*
X75560Y25460D02*
D03*
Y30540D02*
D03*
D60*
X64380Y28000D02*
D03*
D61*
X67511Y38159D02*
D03*
Y46119D02*
D03*
X67611Y16869D02*
D03*
Y8909D02*
D03*
D62*
X83543Y15500D02*
D03*
Y25500D02*
D03*
X83543Y35500D02*
D03*
X83543Y30500D02*
D03*
X83543Y20500D02*
D03*
D63*
X83543Y40500D02*
D03*
D64*
X61500Y3500D02*
D03*
Y52500D02*
D03*
X3500D02*
D03*
Y3500D02*
D03*
D65*
X85943Y36750D02*
D03*
Y39250D02*
D03*
Y16750D02*
D03*
Y19250D02*
D03*
Y26750D02*
D03*
Y29250D02*
D03*
X16447Y53464D02*
D03*
X13907D02*
D03*
X2867Y43244D02*
D03*
Y40704D02*
D03*
X2867Y31815D02*
D03*
Y24195D02*
D03*
Y26735D02*
D03*
Y34355D02*
D03*
X39367Y8250D02*
D03*
X56367D02*
D03*
X39367Y47750D02*
D03*
X56367D02*
D03*
X32667Y36044D02*
D03*
X30127Y38584D02*
D03*
Y36044D02*
D03*
Y33504D02*
D03*
Y30964D02*
D03*
X27587D02*
D03*
Y33504D02*
D03*
Y36044D02*
D03*
Y38584D02*
D03*
Y46204D02*
D03*
Y48744D02*
D03*
Y43664D02*
D03*
Y41124D02*
D03*
X30127D02*
D03*
Y43664D02*
D03*
Y48744D02*
D03*
Y46204D02*
D03*
X32667D02*
D03*
Y48744D02*
D03*
Y43664D02*
D03*
Y41124D02*
D03*
D66*
X11367Y53464D02*
D03*
X2867Y38164D02*
D03*
X2867Y29275D02*
D03*
X32667Y38584D02*
D03*
D67*
X18987Y53464D02*
D03*
D68*
X2867Y45784D02*
D03*
X2867Y21655D02*
D03*
X32667Y30964D02*
D03*
D69*
X7342Y11125D02*
D03*
D70*
Y13665D02*
D03*
Y16205D02*
D03*
Y18745D02*
D03*
Y21285D02*
D03*
Y28905D02*
D03*
Y26365D02*
D03*
Y23825D02*
D03*
Y36525D02*
D03*
Y33985D02*
D03*
Y31445D02*
D03*
Y44145D02*
D03*
Y41605D02*
D03*
Y39065D02*
D03*
Y46685D02*
D03*
X22582Y11125D02*
D03*
Y46685D02*
D03*
Y39065D02*
D03*
Y41605D02*
D03*
Y44145D02*
D03*
Y31445D02*
D03*
Y33985D02*
D03*
Y36525D02*
D03*
Y23825D02*
D03*
Y26365D02*
D03*
Y28905D02*
D03*
Y21285D02*
D03*
Y18745D02*
D03*
Y16205D02*
D03*
Y13665D02*
D03*
D71*
X32667Y33504D02*
D03*
D72*
X52867Y28664D02*
D03*
Y27964D02*
D03*
Y27264D02*
D03*
Y26564D02*
D03*
Y25864D02*
D03*
Y25164D02*
D03*
Y29364D02*
D03*
Y30064D02*
D03*
Y30764D02*
D03*
X51467Y30764D02*
D03*
X50767Y30764D02*
D03*
X52167Y30764D02*
D03*
X51467Y30064D02*
D03*
X50767Y30064D02*
D03*
X52167Y30064D02*
D03*
X51467Y29364D02*
D03*
X50767Y29364D02*
D03*
X52167Y29364D02*
D03*
X51467Y25164D02*
D03*
X50767Y25164D02*
D03*
X51467Y25864D02*
D03*
X50767Y25864D02*
D03*
X52167Y25864D02*
D03*
Y25164D02*
D03*
Y26564D02*
D03*
X50767Y26564D02*
D03*
X51467Y26564D02*
D03*
X52167Y27264D02*
D03*
X50767Y27264D02*
D03*
X51467Y27264D02*
D03*
X52167Y27964D02*
D03*
X50767Y27964D02*
D03*
X51467Y27964D02*
D03*
X52167Y28664D02*
D03*
X50767Y28664D02*
D03*
X51467Y28664D02*
D03*
M02*
