M48
;Layer_Color=9474304
;FILE_FORMAT=4:3
METRIC,LZ
;TYPE=PLATED
T1F00S00C0.300
T2F00S00C0.500
T3F00S00C0.700
T4F00S00C0.800
T5F00S00C0.900
T6F00S00C1.100
;TYPE=NON_PLATED
T7F00S00C3.000
%
T01
X00202Y0012675
X0032592Y0012364
X0037017Y0015414
X0039867Y0018264
X0050242Y0014364
X0047967Y0010464
X0048567Y0005314
Y0004589
Y0003864
X0049292Y0004564
Y0005289
X0050017Y0005264
Y0004539
X0052142Y0004764
X0052167Y0006364
X0050167Y0006764
X0064967Y0046964
X0064967Y0047664
X0065767
X0065767Y0048464
X0064967
X0064967Y0049264
X0065767
X0066467Y0049264
X0067267Y0049264
X0052867Y0030764
Y0030064
Y0029364
Y0028664
Y0027964
Y0027264
Y0026564
Y0025864
Y0025164
X0052167Y0025164
Y0025864
Y0026564
Y0027264
Y0027964
Y0028664
Y0029364
Y0030064
Y0030764
X0051467Y0030764
Y0030064
Y0029364
Y0028664
Y0027964
Y0027264
Y0026564
Y0025864
Y0025164
X0050767Y0025164
Y0025864
Y0026564
Y0027264
Y0027964
Y0028664
Y0029364
Y0030064
Y0030764
X00466Y0030866
X0039167Y0032189
X0037867Y0032239
X0038517Y0032914
X0036392Y0030989
X0036367Y0027464
X0037367Y0027564
X0039817Y0026639
X0039167Y0023739
X0042442Y0023789
X0033967Y0019864
X0026867Y0021864
X0026866Y0023574
X0026867Y0026164
Y0027164
X0026867Y0028664
X0023267Y0027564
X0023367Y0030164
X0029842Y0024964
X0017367Y0021614
T02
X0017767Y0003764
X0020117Y0006114
X0027242Y0002864
X0039367Y0013964
X0048967Y0018864
X0054667Y0014364
Y0013364
X0052867Y0009364
X0055667Y0013364
Y0014364
X0059367Y0015664
Y0016664
Y0017664
Y0018664
Y0019664
X0060767
Y0018664
Y0017664
Y0016664
Y0015664
X0065767Y0015364
Y0014264
Y0013164
X0066867Y0013164
Y0014164
X0067867Y0014164
Y0013164
X0069567Y0009864
X0070567
Y0008664
X0069567
Y0007464
X0070567
X0065767Y0007564
Y0008764
Y0009964
X0065767Y00165
X0074967Y0016564
Y0015264
Y0013064
Y0011764
X0076367Y0003264
X0077867Y0003284
X0080167Y0003264
X0081567
X0057567Y0005564
X0057767Y0011264
X0059267Y0036336
X0059267Y0037336
X0060667Y0037336
X0060667Y0036336
X0056867Y0037364
X0065067Y0037064
Y0038164
Y0039264
X0071592Y0038764
Y0040064
X0071567Y0042064
Y0043364
X0070267Y0044864
X0069267
Y0046064
X0070267
Y0047264
X0069267
X0076667Y0048664
X0077967Y0048644
X0079067Y0049664
Y0050864
X0074967Y0043364
Y0042064
X0074942Y0040064
Y0038764
X00783Y0025475
X0057467Y0050064
X0056367
X0055267
Y0051164
Y0052264
X0056367
X0057467
Y0051164
X0056367
X0054167
Y0052264
X0053067
X0051967
X0050867
Y0051164
X0051967
X0053067
Y0050064
Y0049064
X0054167
Y0050064
Y0047964
Y0046864
X0053067
Y0047964
X0051967
Y0046864
X0050867
Y0047964
Y0049064
Y0050064
X0051967
Y0049064
X0049467Y0044464
Y0043464
X0048467Y0043464
Y0044464
X0054267Y0039064
X0051867Y003555
X0051867Y003455
X0051867Y003355
X0050867Y0033564
X0050867Y0034564
X0050867Y0035564
X0050867Y0022364
X0051867Y0022364
Y0021264
X0050867Y0021264
X0038667Y0022164
T03
X0028267Y0006264
X0032267
T04
X0007342Y0011125
Y0013665
Y0016205
Y0018745
X0022582
Y0016205
Y0013665
Y0011125
Y0021285
Y0023825
Y0026365
Y0028905
Y0031445
Y0033985
Y0036525
Y0039065
Y0041605
Y0044145
Y0046685
X0032667Y0033504
X0007342Y0033985
Y0036525
Y0039065
Y0041605
Y0044145
Y0046685
Y0031445
Y0028905
Y0026365
Y0023825
Y0021285
T05
X0039367Y000825
X0056367
Y004775
X0039367
X0032667Y0048744
X0030127
X0027587
Y0046204
Y0043664
Y0041124
Y0038584
X0030127
X0032667
Y0036044
X0030127
Y0033504
Y0030964
X0032667
X0027587
Y0033504
Y0036044
X0030127Y0041124
Y0043664
Y0046204
X0032667
Y0043664
Y0041124
X0018987Y0053464
X0016447
X0013907
X0011367
X0002867Y0045784
Y0043244
Y0040704
Y0038164
X0002867Y0034355
Y0031815
Y0029275
Y0026735
Y0024195
Y0021655
T06
X0083543Y00155
X0085943Y001675
Y001925
X0083543Y00205
X0083543Y00255
X0085943Y002675
Y002925
X0083543Y00305
X0083543Y00355
X0085943Y003675
Y003925
X0083543Y00405
T07
X00035Y00035
X00615
Y00525
X00035
M30
