G04 Layer_Physical_Order=1*
G04 Layer_Color=16776960*
%FSLAX43Y43*%
%MOMM*%
G71*
G01*
G75*
%ADD10C,0.400*%
G04:AMPARAMS|DCode=11|XSize=2.08mm|YSize=3.81mm|CornerRadius=0.26mm|HoleSize=0mm|Usage=FLASHONLY|Rotation=90.000|XOffset=0mm|YOffset=0mm|HoleType=Round|Shape=RoundedRectangle|*
%AMROUNDEDRECTD11*
21,1,2.080,3.290,0,0,90.0*
21,1,1.560,3.810,0,0,90.0*
1,1,0.520,1.645,0.780*
1,1,0.520,1.645,-0.780*
1,1,0.520,-1.645,-0.780*
1,1,0.520,-1.645,0.780*
%
%ADD11ROUNDEDRECTD11*%
G04:AMPARAMS|DCode=12|XSize=11.43mm|YSize=8.89mm|CornerRadius=1.111mm|HoleSize=0mm|Usage=FLASHONLY|Rotation=90.000|XOffset=0mm|YOffset=0mm|HoleType=Round|Shape=RoundedRectangle|*
%AMROUNDEDRECTD12*
21,1,11.430,6.668,0,0,90.0*
21,1,9.207,8.890,0,0,90.0*
1,1,2.223,3.334,4.604*
1,1,2.223,3.334,-4.604*
1,1,2.223,-3.334,-4.604*
1,1,2.223,-3.334,4.604*
%
%ADD12ROUNDEDRECTD12*%
G04:AMPARAMS|DCode=13|XSize=2.12mm|YSize=3.86mm|CornerRadius=0.265mm|HoleSize=0mm|Usage=FLASHONLY|Rotation=180.000|XOffset=0mm|YOffset=0mm|HoleType=Round|Shape=RoundedRectangle|*
%AMROUNDEDRECTD13*
21,1,2.120,3.330,0,0,180.0*
21,1,1.590,3.860,0,0,180.0*
1,1,0.530,-0.795,1.665*
1,1,0.530,0.795,1.665*
1,1,0.530,0.795,-1.665*
1,1,0.530,-0.795,-1.665*
%
%ADD13ROUNDEDRECTD13*%
%ADD14C,1.200*%
%ADD15C,1.000*%
%ADD16C,0.300*%
%ADD17C,2.000*%
%ADD18C,0.750*%
%ADD19C,0.500*%
%ADD20C,2.200*%
%ADD21R,2.200X2.200*%
%ADD22C,1.900*%
%ADD23R,1.900X1.900*%
%ADD24R,1.900X1.900*%
%ADD25R,1.400X1.400*%
%ADD26C,1.500*%
%ADD27C,1.400*%
%ADD28R,1.400X1.400*%
%ADD29C,1.000*%
%ADD30C,0.700*%
G36*
X89495Y33200D02*
Y28000D01*
X86454D01*
X86358Y28040D01*
Y28177D01*
X86523Y28246D01*
X86763Y28430D01*
X86947Y28670D01*
X87063Y28950D01*
X87063Y28950D01*
X85943D01*
X84823D01*
X84823Y28950D01*
X84938Y28670D01*
X85123Y28430D01*
X85363Y28246D01*
X85528Y28177D01*
Y28040D01*
X85432Y28000D01*
X69500D01*
X69500Y33200D01*
X89495Y33200D01*
D02*
G37*
G36*
X58367Y13364D02*
X58367D01*
X58367Y13295D01*
X58340Y13160D01*
X58287Y13033D01*
X58211Y12918D01*
X58113Y12821D01*
X57999Y12744D01*
X57871Y12691D01*
X57736Y12664D01*
X53867D01*
X53867Y16084D01*
X53867Y16084D01*
X53878Y16207D01*
X53893Y16283D01*
X53944Y16406D01*
X54019Y16518D01*
X54113Y16612D01*
X54225Y16687D01*
X54349Y16738D01*
X54480Y16764D01*
X54547Y16764D01*
X58367Y16764D01*
X58367Y13364D01*
D02*
G37*
G36*
X68567Y42164D02*
Y40351D01*
X68440Y40272D01*
X68306Y40298D01*
X67811D01*
Y38159D01*
Y36020D01*
X68306D01*
X68440Y36047D01*
X68567Y35968D01*
Y34600D01*
X67267Y34600D01*
Y33926D01*
X66880D01*
Y28000D01*
Y22074D01*
X67267D01*
Y21500D01*
X72967Y21500D01*
X72967Y12754D01*
X72877Y12664D01*
X61667Y12664D01*
X61627Y12664D01*
X61554Y12695D01*
X61497Y12751D01*
X61467Y12824D01*
X61467Y12864D01*
Y15618D01*
X61473Y15664D01*
X61467Y15710D01*
Y16618D01*
X61473Y16664D01*
X61467Y16710D01*
Y17618D01*
X61473Y17664D01*
X61467Y17710D01*
Y18618D01*
X61473Y18664D01*
X61467Y18710D01*
Y19618D01*
X61473Y19664D01*
X61467Y19710D01*
Y22074D01*
X61880D01*
Y28000D01*
Y33926D01*
X61467D01*
Y41864D01*
Y41924D01*
X61513Y42034D01*
X61597Y42119D01*
X61707Y42164D01*
X61767Y42164D01*
X61767Y42164D01*
X68567Y42164D01*
D02*
G37*
G36*
X50117Y42664D02*
X47617D01*
Y45164D01*
X47617Y45164D01*
X50117D01*
Y42664D01*
D02*
G37*
G36*
X70767Y49664D02*
X70767Y44164D01*
X68802Y44164D01*
X68792Y44184D01*
X68748Y44291D01*
X68781Y44454D01*
Y45819D01*
X67511D01*
X66242D01*
Y44454D01*
X66275Y44291D01*
X66231Y44184D01*
X66220Y44164D01*
X64567Y44164D01*
X64567Y49664D01*
X70767Y49664D01*
D02*
G37*
G36*
X26617Y28419D02*
X26597Y28437D01*
X26576Y28453D01*
X26553Y28467D01*
X26528Y28480D01*
X26501Y28490D01*
X26473Y28499D01*
X26442Y28505D01*
X26410Y28510D01*
X26376Y28513D01*
X26341Y28514D01*
Y28814D01*
X26376Y28815D01*
X26410Y28818D01*
X26442Y28823D01*
X26473Y28829D01*
X26501Y28838D01*
X26528Y28848D01*
X26553Y28861D01*
X26576Y28875D01*
X26597Y28891D01*
X26617Y28909D01*
Y28419D01*
D02*
G37*
G36*
X18367Y21064D02*
X19281D01*
X20548Y19798D01*
X20663Y19720D01*
X20800Y19693D01*
X21731D01*
X21771Y19573D01*
X21762Y19565D01*
X21577Y19325D01*
X21462Y19045D01*
X21422Y18745D01*
X21462Y18445D01*
X21577Y18165D01*
X21762Y17925D01*
X22002Y17741D01*
X22282Y17625D01*
X22582Y17585D01*
X22882Y17625D01*
X23162Y17741D01*
X23402Y17925D01*
X23586Y18165D01*
X23702Y18445D01*
X23742Y18745D01*
X23702Y19045D01*
X23586Y19325D01*
X23402Y19565D01*
X23392Y19573D01*
X23433Y19693D01*
X25125D01*
X25262Y19720D01*
X25377Y19798D01*
X26644Y21064D01*
X36967D01*
Y21064D01*
X37036Y21064D01*
X37171Y21037D01*
X37299Y20985D01*
X37413Y20908D01*
X37511Y20811D01*
X37587Y20696D01*
X37640Y20569D01*
X37667Y20433D01*
X37667Y16569D01*
X37064Y15966D01*
X37017Y15975D01*
X36802Y15932D01*
X36620Y15811D01*
X36499Y15629D01*
X36456Y15414D01*
X36499Y15200D01*
X36620Y15018D01*
X36802Y14896D01*
X37017Y14854D01*
X37232Y14896D01*
X37413Y15018D01*
X37535Y15200D01*
X37540Y15224D01*
X37667Y15212D01*
X37667Y12664D01*
X37667Y6764D01*
X37673Y6706D01*
X37718Y6598D01*
X37800Y6515D01*
X37908Y6470D01*
X37967Y6464D01*
X40767Y6464D01*
X40845Y6472D01*
X40989Y6532D01*
X41100Y6642D01*
X41159Y6786D01*
X41167Y6864D01*
X41167Y8940D01*
X41167Y9165D01*
X41255Y9606D01*
X41427Y10021D01*
X41677Y10395D01*
X41836Y10554D01*
X45377Y14096D01*
X45377D01*
X45377Y14096D01*
X45536Y14255D01*
X45910Y14504D01*
X46325Y14677D01*
X46766Y14764D01*
X46991Y14764D01*
X50267Y14764D01*
Y14764D01*
X50366Y14764D01*
X50550Y14688D01*
X50691Y14548D01*
X50767Y14364D01*
X50767Y14264D01*
X50767Y11946D01*
Y9406D01*
X50771Y9325D01*
X50781Y9276D01*
Y9264D01*
X50825Y9040D01*
X50952Y8850D01*
X52558Y7245D01*
X52679Y7062D01*
X52804Y6762D01*
X52867Y6444D01*
X52867Y6281D01*
X52867Y4564D01*
X52867D01*
X52867Y4505D01*
X52821Y4394D01*
X52737Y4310D01*
X52627Y4264D01*
X52567Y4264D01*
X51567Y4264D01*
X51507Y4264D01*
X51397Y4310D01*
X51313Y4394D01*
X51267Y4505D01*
X51267Y4564D01*
X51267Y5450D01*
X51267D01*
X51255Y5570D01*
X51164Y5791D01*
X50994Y5961D01*
X50773Y6052D01*
X50653Y6064D01*
X46267Y6064D01*
Y6064D01*
X46189Y6057D01*
X46045Y5997D01*
X45934Y5887D01*
X45875Y5742D01*
X45867Y5664D01*
X45867Y4464D01*
X45867D01*
Y4405D01*
X45821Y4294D01*
X45737Y4210D01*
X45627Y4164D01*
X45567D01*
X35367Y4164D01*
X35287D01*
X35140Y4225D01*
X35028Y4338D01*
X34967Y4485D01*
X34967Y6564D01*
X34967D01*
X34955Y6681D01*
X34866Y6898D01*
X34700Y7063D01*
X34484Y7153D01*
X34367Y7164D01*
X32901D01*
X32822Y7225D01*
X32554Y7336D01*
X32267Y7374D01*
X31980Y7336D01*
X31712Y7225D01*
X31633Y7164D01*
X28901D01*
X28822Y7225D01*
X28554Y7336D01*
X28267Y7374D01*
X27980Y7336D01*
X27712Y7225D01*
X27633Y7164D01*
X18367Y7164D01*
X18288D01*
X18134Y7195D01*
X17988Y7255D01*
X17857Y7343D01*
X17746Y7454D01*
X17658Y7585D01*
X17598Y7731D01*
X17567Y7885D01*
Y12664D01*
Y20264D01*
X17567Y20343D01*
X17598Y20498D01*
X17658Y20643D01*
X17746Y20774D01*
X17857Y20886D01*
X17988Y20973D01*
X18134Y21034D01*
X18288Y21064D01*
X18367Y21064D01*
D02*
G37*
G36*
X23333Y29022D02*
X23506Y28591D01*
X23537Y28532D01*
X23568Y28481D01*
X23599Y28439D01*
X23628Y28405D01*
X23488Y28121D01*
X23441Y28162D01*
X23389Y28196D01*
X23334Y28222D01*
X23274Y28241D01*
X23210Y28252D01*
X23141Y28256D01*
X23069Y28252D01*
X22992Y28241D01*
X22911Y28222D01*
X22825Y28196D01*
X23296Y29134D01*
X23333Y29022D01*
D02*
G37*
G36*
X59767Y20264D02*
X59803Y20264D01*
X59869Y20237D01*
X59910Y20196D01*
X59947Y20084D01*
Y20084D01*
X59947Y19965D01*
X59947Y11864D01*
X59951Y11776D01*
X59986Y11603D01*
X60053Y11440D01*
X60151Y11293D01*
X60276Y11169D01*
X60423Y11071D01*
X60455Y11057D01*
X60457Y11055D01*
X60585Y11003D01*
X60604Y10999D01*
X60623Y10991D01*
X60758Y10964D01*
X60778Y10964D01*
X60798Y10960D01*
X60867Y10960D01*
X64877Y10960D01*
X64963Y10864D01*
X64963Y6464D01*
X64967Y6445D01*
Y6264D01*
X65147D01*
X65167Y6260D01*
X71378Y6260D01*
X71378Y6260D01*
X71379Y6260D01*
X71398Y6264D01*
X71686D01*
X71686Y10960D01*
X76767Y10960D01*
X76787Y10964D01*
X76967D01*
X76986Y10966D01*
X77022Y10981D01*
X77050Y11009D01*
X77065Y11045D01*
X77067Y11064D01*
X77067Y11064D01*
Y11238D01*
X77071Y11258D01*
X77071Y11258D01*
X77071Y11258D01*
X77071Y11265D01*
Y17794D01*
X77082Y17821D01*
X77110Y17849D01*
X77138Y17860D01*
X77651D01*
X85212Y17799D01*
X85254Y17671D01*
X85123Y17570D01*
X84938Y17330D01*
X84823Y17051D01*
X84823Y17050D01*
X85943D01*
X87063D01*
X87063Y17051D01*
X86947Y17330D01*
X86763Y17570D01*
X86646Y17660D01*
X86690Y17787D01*
X89495Y17764D01*
X89495Y4995D01*
X89495Y4740D01*
X89395Y4242D01*
X89201Y3773D01*
X88919Y3350D01*
X88559Y2991D01*
X88137Y2708D01*
X87667Y2514D01*
X87169Y2415D01*
X86915Y2415D01*
X86915Y2415D01*
Y2415D01*
X68403Y2415D01*
X68179Y2415D01*
X67734Y2459D01*
X67295Y2546D01*
X66867Y2676D01*
X66453Y2847D01*
X66059Y3058D01*
X65687Y3307D01*
X65341Y3590D01*
X65183Y3749D01*
X65183Y3749D01*
X63348Y5583D01*
X63247Y5679D01*
X63032Y5856D01*
X62800Y6010D01*
X62555Y6142D01*
X62297Y6248D01*
X62031Y6329D01*
X61758Y6384D01*
X61481Y6411D01*
X61341Y6414D01*
X61341Y6414D01*
X61341Y6414D01*
X59503Y6414D01*
X59341Y6446D01*
X59189Y6510D01*
X59051Y6601D01*
X58934Y6718D01*
X58843Y6856D01*
X58779Y7008D01*
X58747Y7170D01*
X58747Y7253D01*
X58747D01*
X58747Y10184D01*
X58747Y20045D01*
X58747Y20088D01*
X58781Y20169D01*
X58842Y20231D01*
X58923Y20264D01*
X58967Y20264D01*
X58967Y20264D01*
X59767Y20264D01*
D02*
G37*
G36*
X24969Y55673D02*
X25276Y55367D01*
X25517Y55006D01*
X25682Y54606D01*
X25767Y54181D01*
X25767Y53964D01*
X25767Y53964D01*
X25767Y53964D01*
X25767Y39139D01*
X25767Y29849D01*
X25640Y29796D01*
X23738Y31698D01*
X23706Y31719D01*
X23702Y31746D01*
X23586Y32025D01*
X23402Y32265D01*
X23162Y32450D01*
X22882Y32566D01*
X22582Y32605D01*
X22282Y32566D01*
X22002Y32450D01*
X21762Y32265D01*
X21577Y32025D01*
X21462Y31746D01*
X21422Y31445D01*
X21462Y31145D01*
X21577Y30865D01*
X21762Y30625D01*
X22002Y30441D01*
X22282Y30325D01*
X22582Y30285D01*
X22729Y30305D01*
X22816Y30212D01*
X22806Y30164D01*
X22811Y30139D01*
X22724Y30046D01*
X22582Y30065D01*
X22282Y30026D01*
X22002Y29910D01*
X21762Y29725D01*
X21577Y29485D01*
X21462Y29205D01*
X21422Y28905D01*
X21462Y28605D01*
X21577Y28325D01*
X21762Y28085D01*
X22002Y27901D01*
X22282Y27785D01*
X22582Y27745D01*
X22638Y27753D01*
X22725Y27660D01*
X22706Y27564D01*
X22660Y27515D01*
X22582Y27525D01*
X22282Y27486D01*
X22002Y27370D01*
X21762Y27185D01*
X21577Y26945D01*
X21462Y26666D01*
X21422Y26365D01*
X21462Y26065D01*
X21577Y25785D01*
X21762Y25545D01*
X22002Y25361D01*
X22282Y25245D01*
X22582Y25205D01*
X22882Y25245D01*
X23162Y25361D01*
X23402Y25545D01*
X23586Y25785D01*
X23596Y25807D01*
X26444D01*
X26470Y25768D01*
X26652Y25646D01*
X26867Y25604D01*
X27082Y25646D01*
X27263Y25768D01*
X27385Y25950D01*
X27428Y26164D01*
X27385Y26379D01*
X27263Y26561D01*
X27204Y26601D01*
Y26728D01*
X27263Y26768D01*
X27385Y26950D01*
X27428Y27164D01*
X27385Y27379D01*
X27301Y27504D01*
X27302Y27536D01*
X27333Y27650D01*
X27339Y27658D01*
X27419Y27712D01*
X27958Y28250D01*
X35076D01*
X35815Y27511D01*
X35806Y27464D01*
X35849Y27250D01*
X35970Y27068D01*
X36152Y26946D01*
X36367Y26904D01*
X36582Y26946D01*
X36763Y27068D01*
X36824Y27158D01*
X36970Y27168D01*
X37152Y27046D01*
X37367Y27004D01*
X37582Y27046D01*
X37763Y27168D01*
X37885Y27350D01*
X37928Y27564D01*
X37885Y27779D01*
X37763Y27961D01*
X37582Y28082D01*
X37367Y28125D01*
X37320Y28116D01*
X35867Y29569D01*
X35867Y31763D01*
X35905Y31956D01*
X35981Y32138D01*
X36090Y32302D01*
X36229Y32441D01*
X36393Y32550D01*
X36575Y32626D01*
X36768Y32664D01*
X36867D01*
X36867Y32664D01*
X45767Y32664D01*
X45875D01*
X46088Y32622D01*
X46288Y32539D01*
X46468Y32419D01*
X46621Y32265D01*
X46742Y32085D01*
X46825Y31885D01*
X46865Y31683D01*
X46867Y31566D01*
Y31564D01*
X46867Y31564D01*
X46867Y31564D01*
X46867Y21964D01*
X46867Y21895D01*
X46840Y21760D01*
X46787Y21633D01*
X46711Y21518D01*
X46613Y21421D01*
X46499Y21344D01*
X46371Y21291D01*
X46290Y21275D01*
X46223Y21269D01*
X46167Y21264D01*
Y21264D01*
X40998Y21264D01*
X40863Y21291D01*
X40735Y21344D01*
X40621Y21421D01*
X40523Y21518D01*
X40447Y21633D01*
X40394Y21760D01*
X40367Y21895D01*
X40367Y21964D01*
X39373D01*
Y22164D01*
X39349Y22347D01*
X39278Y22517D01*
X39166Y22664D01*
X39020Y22776D01*
X38850Y22846D01*
X38667Y22870D01*
X38484Y22846D01*
X38314Y22776D01*
X38168Y22664D01*
X38056Y22517D01*
X37985Y22347D01*
X37961Y22164D01*
Y21964D01*
X27408D01*
X27385Y22079D01*
X27263Y22261D01*
X27082Y22382D01*
X26867Y22425D01*
X26652Y22382D01*
X26470Y22261D01*
X26349Y22079D01*
X26326Y21964D01*
X23510D01*
X23402Y22105D01*
X23162Y22290D01*
X22882Y22406D01*
X22582Y22445D01*
X22282Y22406D01*
X22002Y22290D01*
X21762Y22105D01*
X21653Y21964D01*
X19270D01*
X19236Y21971D01*
X17790D01*
X17763Y22011D01*
X17582Y22132D01*
X17367Y22175D01*
X17152Y22132D01*
X16970Y22011D01*
X16849Y21829D01*
X16806Y21614D01*
X16849Y21400D01*
X16970Y21218D01*
X17152Y21096D01*
X17267Y21073D01*
X17267Y7792D01*
X17275Y7626D01*
X17354Y7303D01*
X17510Y7010D01*
X17734Y6764D01*
X17867Y6664D01*
X18017Y6580D01*
X18343Y6472D01*
X18686Y6447D01*
X19024Y6509D01*
X19184Y6571D01*
X19254Y6603D01*
X19304Y6623D01*
X19376Y6514D01*
X18502Y5641D01*
X17205Y4343D01*
X17205Y4343D01*
X17196Y4335D01*
X17068Y4168D01*
X16988Y3973D01*
X16960Y3764D01*
X16967Y3712D01*
Y3664D01*
X16967Y3595D01*
X16994Y3460D01*
X17047Y3333D01*
X17123Y3218D01*
X17221Y3121D01*
X17335Y3044D01*
X17463Y2991D01*
X17598Y2964D01*
X17667Y2964D01*
X17715D01*
X17767Y2957D01*
X17976Y2985D01*
X18170Y3065D01*
X18193Y3083D01*
X18239Y3102D01*
X18436Y3234D01*
X18521Y3318D01*
X22067Y6864D01*
X22194Y6864D01*
X24667Y6864D01*
X24786Y6864D01*
X25007Y6773D01*
X25176Y6604D01*
X25267Y6384D01*
X25267Y6264D01*
X25267D01*
X25267Y6264D01*
X25267Y5664D01*
X25277Y5567D01*
X25351Y5386D01*
X25489Y5249D01*
X25669Y5174D01*
X25767Y5164D01*
X28195D01*
X28267Y5155D01*
X28339Y5164D01*
X30424Y5164D01*
X30473Y5047D01*
X28698Y3272D01*
X27811D01*
X27741Y3364D01*
X27595Y3476D01*
X27425Y3546D01*
X27242Y3570D01*
X27059Y3546D01*
X26889Y3476D01*
X26743Y3364D01*
X26630Y3217D01*
X26560Y3047D01*
X26536Y2864D01*
X26560Y2682D01*
X26630Y2511D01*
X26743Y2365D01*
X26889Y2253D01*
X27059Y2182D01*
X27242Y2158D01*
X27425Y2182D01*
X27595Y2253D01*
X27741Y2365D01*
X27811Y2456D01*
X28867D01*
X28867Y2456D01*
X29023Y2487D01*
X29155Y2576D01*
X31744Y5164D01*
X32195D01*
X32267Y5155D01*
X32339Y5164D01*
X34167D01*
X34266Y5164D01*
X34450Y5088D01*
X34591Y4948D01*
X34660Y4781D01*
X34667Y4664D01*
Y4664D01*
X34667D01*
X34667Y4664D01*
X34667Y4364D01*
X34677Y4267D01*
X34751Y4086D01*
X34889Y3949D01*
X35069Y3874D01*
X35167Y3864D01*
X45867Y3864D01*
X45925Y3870D01*
X46034Y3915D01*
X46116Y3998D01*
X46161Y4106D01*
X46167Y4164D01*
X46167Y4164D01*
X46167Y5441D01*
X46226Y5583D01*
X46334Y5692D01*
X46476Y5750D01*
X46553D01*
X46553Y5750D01*
X50281Y5750D01*
X50349Y5750D01*
X50481Y5724D01*
X50606Y5672D01*
X50718Y5597D01*
X50814Y5502D01*
X50889Y5389D01*
X50941Y5264D01*
X50967Y5132D01*
X50967Y5064D01*
X50967D01*
X50967Y299D01*
X50877Y209D01*
X6336D01*
X6336Y6364D01*
X209Y6364D01*
Y49664D01*
X6367D01*
Y55791D01*
X24793D01*
X24969Y55673D01*
D02*
G37*
G36*
X87036Y52364D02*
X87036Y52364D01*
X87036Y52364D01*
X87278Y52364D01*
X87753Y52270D01*
X88200Y52084D01*
X88603Y51815D01*
X88946Y51473D01*
X89215Y51070D01*
X89400Y50623D01*
X89495Y50148D01*
Y49905D01*
X89495Y38295D01*
X89368Y38168D01*
X86630D01*
X86587Y38295D01*
X86763Y38430D01*
X86947Y38670D01*
X87063Y38950D01*
X87063Y38950D01*
X85943D01*
Y39250D01*
X85643D01*
Y40371D01*
X85643Y40371D01*
X85363Y40255D01*
X85123Y40070D01*
X84974Y39876D01*
X84847Y39920D01*
Y40200D01*
X83843D01*
Y39196D01*
X84643D01*
X84662Y39200D01*
X84787Y39130D01*
X84801Y39112D01*
X84823Y38950D01*
X84938Y38670D01*
X85123Y38430D01*
X85299Y38295D01*
X85255Y38168D01*
X75771Y38168D01*
X75771Y43964D01*
X75767Y43984D01*
Y44164D01*
X75587D01*
X75567Y44168D01*
X70971Y44168D01*
X70971Y44845D01*
X70973Y44864D01*
X70971Y44884D01*
X70971Y46044D01*
X70973Y46064D01*
X70971Y46084D01*
X70971Y47244D01*
X70973Y47264D01*
X70971Y47284D01*
X70971Y49664D01*
X70955Y49742D01*
X70911Y49808D01*
X70845Y49853D01*
X70767Y49868D01*
X64567Y49868D01*
X64489Y49853D01*
X64423Y49808D01*
X64379Y49742D01*
X64363Y49664D01*
X64363Y44168D01*
X60467Y44168D01*
X60388Y44168D01*
X60387Y44168D01*
X60387Y44168D01*
X60367Y44164D01*
X60167D01*
X60167Y44164D01*
X60108Y44158D01*
X60000Y44114D01*
X59917Y44031D01*
X59873Y43923D01*
X59867Y43864D01*
X59867Y43664D01*
X59863Y43644D01*
X59863Y43644D01*
X59863Y43644D01*
X59863Y43564D01*
Y35964D01*
X59863Y35925D01*
X59863Y35925D01*
X59863Y35925D01*
X59864Y35918D01*
X59836Y35851D01*
X59780Y35795D01*
X59707Y35764D01*
X58967Y35764D01*
X58927Y35764D01*
X58854Y35795D01*
X58797Y35851D01*
X58767Y35924D01*
X58767Y35964D01*
X59023Y45186D01*
X61864Y49686D01*
X62002Y49698D01*
X62408Y49792D01*
X62795Y49946D01*
X63155Y50156D01*
X63480Y50417D01*
X63762Y50723D01*
X63996Y51068D01*
X64176Y51444D01*
X64299Y51842D01*
X64360Y52254D01*
Y52364D01*
X87036Y52364D01*
D02*
G37*
G36*
X53567Y21064D02*
X53567Y20985D01*
X53506Y20838D01*
X53394Y20725D01*
X53287Y20681D01*
X53167Y20664D01*
X50617Y20664D01*
X50527Y20664D01*
X50362Y20733D01*
X50235Y20859D01*
X50167Y21025D01*
X50167Y21114D01*
X50167Y36164D01*
X53567Y36164D01*
X53567Y21064D01*
D02*
G37*
G36*
X39863Y17914D02*
X39837Y17913D01*
X39810Y17910D01*
X39784Y17903D01*
X39758Y17894D01*
X39731Y17883D01*
X39705Y17869D01*
X39679Y17852D01*
X39653Y17833D01*
X39627Y17811D01*
X39601Y17786D01*
X39389Y17998D01*
X39413Y18024D01*
X39435Y18050D01*
X39455Y18076D01*
X39471Y18102D01*
X39486Y18129D01*
X39497Y18155D01*
X39506Y18181D01*
X39512Y18208D01*
X39516Y18234D01*
X39517Y18261D01*
X39863Y17914D01*
D02*
G37*
G36*
X23618Y27534D02*
X23622Y27508D01*
X23628Y27481D01*
X23637Y27455D01*
X23648Y27429D01*
X23662Y27402D01*
X23679Y27376D01*
X23699Y27350D01*
X23721Y27324D01*
X23745Y27298D01*
X23533Y27086D01*
X23507Y27111D01*
X23481Y27133D01*
X23455Y27152D01*
X23429Y27169D01*
X23403Y27183D01*
X23376Y27194D01*
X23350Y27203D01*
X23324Y27209D01*
X23297Y27213D01*
X23271Y27214D01*
X23617Y27561D01*
X23618Y27534D01*
D02*
G37*
G36*
X26617Y26919D02*
X26597Y26937D01*
X26576Y26953D01*
X26553Y26968D01*
X26528Y26980D01*
X26501Y26991D01*
X26473Y26999D01*
X26443Y27006D01*
X26410Y27010D01*
X26376Y27013D01*
X26341Y27014D01*
Y27314D01*
X26376Y27315D01*
X26410Y27318D01*
X26443Y27323D01*
X26473Y27329D01*
X26501Y27338D01*
X26528Y27348D01*
X26553Y27361D01*
X26576Y27375D01*
X26597Y27391D01*
X26617Y27409D01*
Y26919D01*
D02*
G37*
G36*
X42717Y17314D02*
X41091Y16536D01*
X41245Y16705D01*
X41368Y16870D01*
X41460Y17033D01*
X41521Y17193D01*
X41550Y17350D01*
X41549Y17504D01*
X41516Y17655D01*
X41453Y17804D01*
X41358Y17949D01*
X41232Y18092D01*
X41939Y18799D01*
X42082Y18673D01*
X42228Y18579D01*
X42376Y18515D01*
X42527Y18482D01*
X42682Y18481D01*
X42839Y18511D01*
X42998Y18572D01*
X43161Y18663D01*
X43326Y18786D01*
X43495Y18941D01*
X42717Y17314D01*
D02*
G37*
G36*
X23718Y30134D02*
X23722Y30108D01*
X23728Y30081D01*
X23737Y30055D01*
X23748Y30029D01*
X23762Y30002D01*
X23779Y29976D01*
X23799Y29950D01*
X23821Y29924D01*
X23845Y29898D01*
X23633Y29686D01*
X23607Y29711D01*
X23581Y29733D01*
X23555Y29752D01*
X23529Y29769D01*
X23503Y29783D01*
X23476Y29794D01*
X23450Y29803D01*
X23424Y29810D01*
X23397Y29813D01*
X23370Y29814D01*
X23717Y30161D01*
X23718Y30134D01*
D02*
G37*
G36*
X57667Y55664D02*
Y55664D01*
X57825Y55664D01*
X58134Y55603D01*
X58425Y55482D01*
X58687Y55307D01*
X58910Y55084D01*
X59085Y54822D01*
X59205Y54531D01*
X59267Y54222D01*
Y54202D01*
X59218Y54141D01*
X59023Y53805D01*
X58879Y53445D01*
X58791Y53067D01*
X58760Y52680D01*
X58786Y52292D01*
X58828Y52103D01*
X58828Y51884D01*
X58908Y51453D01*
X59066Y51044D01*
X59267Y50717D01*
X59267Y46164D01*
X44367Y46164D01*
X44268Y46164D01*
X44075Y46203D01*
X43893Y46278D01*
X43729Y46388D01*
X43590Y46527D01*
X43481Y46691D01*
X43405Y46873D01*
X43367Y47066D01*
X43367Y47164D01*
Y47424D01*
X43355Y47673D01*
X43258Y48162D01*
X43067Y48622D01*
X42790Y49036D01*
X42438Y49388D01*
X42024Y49664D01*
X41564Y49855D01*
X41076Y49952D01*
X40827Y49964D01*
X33249D01*
X33019Y50060D01*
X32667Y50106D01*
X32315Y50060D01*
X32085Y49964D01*
X30709D01*
X30479Y50060D01*
X30127Y50106D01*
X29775Y50060D01*
X29446Y49924D01*
X29164Y49707D01*
X28948Y49425D01*
X28917Y49351D01*
X28832Y49224D01*
X28801Y49150D01*
X28664D01*
X28591Y49324D01*
X28407Y49564D01*
X28167Y49749D01*
X27887Y49865D01*
X27887Y49865D01*
Y48744D01*
Y47624D01*
X27887Y47624D01*
X28167Y47740D01*
X28407Y47924D01*
X28540Y48097D01*
X28667Y48054D01*
Y46895D01*
X28540Y46851D01*
X28407Y47024D01*
X28167Y47209D01*
X27887Y47325D01*
X27887Y47325D01*
Y46204D01*
Y45084D01*
X27887Y45084D01*
X28167Y45200D01*
X28407Y45384D01*
X28540Y45557D01*
X28667Y45514D01*
Y44355D01*
X28540Y44311D01*
X28407Y44484D01*
X28167Y44669D01*
X27887Y44785D01*
X27887Y44785D01*
Y43664D01*
Y42544D01*
X27887Y42544D01*
X28167Y42660D01*
X28407Y42844D01*
X28540Y43017D01*
X28667Y42974D01*
Y41815D01*
X28540Y41771D01*
X28407Y41944D01*
X28167Y42129D01*
X27887Y42245D01*
X27887Y42245D01*
Y41124D01*
Y40004D01*
X27887Y40004D01*
X28167Y40120D01*
X28407Y40304D01*
X28540Y40477D01*
X28667Y40434D01*
Y39275D01*
X28540Y39231D01*
X28407Y39404D01*
X28167Y39589D01*
X27887Y39705D01*
X27887Y39705D01*
Y38584D01*
Y37464D01*
X27887Y37464D01*
X28167Y37580D01*
X28407Y37764D01*
X28540Y37937D01*
X28667Y37894D01*
Y36735D01*
X28540Y36691D01*
X28407Y36864D01*
X28167Y37049D01*
X27887Y37165D01*
X27887Y37165D01*
Y36044D01*
Y34924D01*
X27887Y34924D01*
X28167Y35040D01*
X28407Y35224D01*
X28540Y35397D01*
X28667Y35354D01*
Y34195D01*
X28540Y34151D01*
X28407Y34324D01*
X28167Y34509D01*
X27887Y34625D01*
X27887Y34625D01*
Y33504D01*
Y32384D01*
X27887Y32384D01*
X28167Y32500D01*
X28407Y32684D01*
X28540Y32857D01*
X28667Y32814D01*
Y31655D01*
X28540Y31611D01*
X28407Y31784D01*
X28167Y31969D01*
X27887Y32085D01*
X27887Y32085D01*
Y30964D01*
X27587D01*
Y30664D01*
X26467D01*
X26467Y30664D01*
X26582Y30384D01*
X26767Y30144D01*
X27007Y29960D01*
X27287Y29844D01*
X27265Y29721D01*
X26167D01*
Y53124D01*
Y53374D01*
X26265Y53865D01*
X26456Y54327D01*
X26734Y54743D01*
X27088Y55097D01*
X27504Y55375D01*
X27966Y55567D01*
X28457Y55664D01*
X29867D01*
X57667Y55664D01*
D02*
G37*
G36*
X60467Y43964D02*
X64547Y43964D01*
X64567Y43960D01*
X66220Y43960D01*
X66240Y43964D01*
X68783Y43964D01*
X68802Y43960D01*
X70767Y43960D01*
X70787Y43964D01*
X75567Y43964D01*
X75567Y37964D01*
X85520Y37964D01*
X85528Y37961D01*
Y37823D01*
X85363Y37755D01*
X85123Y37570D01*
X84938Y37330D01*
X84823Y37050D01*
X84823Y37050D01*
X85943D01*
X87063D01*
X87063Y37050D01*
X86947Y37330D01*
X86763Y37570D01*
X86523Y37755D01*
X86358Y37823D01*
Y37961D01*
X86366Y37964D01*
X89495D01*
X89495Y33500D01*
X69831D01*
X69831Y33500D01*
X69736Y33500D01*
X69550Y33537D01*
X69374Y33610D01*
X69217Y33715D01*
X69082Y33850D01*
X68977Y34008D01*
X68904Y34183D01*
X68867Y34369D01*
X68867Y34464D01*
X68867Y42064D01*
X68867Y42064D01*
X68867Y42064D01*
X68867Y42065D01*
X68861Y42123D01*
X68816Y42231D01*
X68734Y42314D01*
X68654Y42347D01*
X68645Y42353D01*
X68635Y42355D01*
X68625Y42359D01*
X68606Y42360D01*
X68567Y42368D01*
X61767Y42368D01*
X61767Y42368D01*
X61707Y42368D01*
X61688Y42364D01*
X61567D01*
Y42364D01*
X61508Y42359D01*
X61400Y42314D01*
X61318Y42231D01*
X61273Y42123D01*
X61267Y42064D01*
Y41944D01*
X61263Y41924D01*
Y35915D01*
X61236Y35851D01*
X61180Y35795D01*
X61107Y35764D01*
X60267Y35764D01*
X60227Y35764D01*
X60154Y35795D01*
X60097Y35851D01*
X60067Y35925D01*
X60067Y35964D01*
Y43564D01*
X60067Y43644D01*
X60128Y43791D01*
X60240Y43903D01*
X60387Y43964D01*
X60467Y43964D01*
D02*
G37*
G36*
X57410Y10914D02*
X57379Y10943D01*
X57347Y10968D01*
X57312Y10991D01*
X57275Y11010D01*
X57236Y11027D01*
X57195Y11040D01*
X57152Y11051D01*
X57106Y11058D01*
X57058Y11063D01*
X57009Y11064D01*
Y11464D01*
X57058Y11466D01*
X57106Y11470D01*
X57152Y11478D01*
X57195Y11488D01*
X57236Y11502D01*
X57275Y11518D01*
X57312Y11538D01*
X57347Y11560D01*
X57379Y11586D01*
X57410Y11614D01*
Y10914D01*
D02*
G37*
G36*
X89495Y23664D02*
X89495Y18064D01*
X86417Y18064D01*
X86391Y18191D01*
X86523Y18246D01*
X86763Y18430D01*
X86947Y18670D01*
X87063Y18950D01*
X87063Y18950D01*
X85943D01*
X84823D01*
X84823Y18950D01*
X84938Y18670D01*
X85123Y18430D01*
X85363Y18246D01*
X85495Y18191D01*
X85469Y18064D01*
X76967Y18064D01*
X76947Y18062D01*
X76911Y18048D01*
X76884Y18020D01*
X76869Y17984D01*
X76867Y17964D01*
Y11264D01*
X76867Y11258D01*
X76792Y11183D01*
X76767Y11164D01*
X60867Y11164D01*
X60798Y11164D01*
X60663Y11191D01*
X60535Y11244D01*
X60421Y11321D01*
X60323Y11418D01*
X60247Y11533D01*
X60194Y11660D01*
X60167Y11795D01*
X60167Y11864D01*
Y12264D01*
X60167Y20104D01*
X60197Y20178D01*
X60254Y20234D01*
X60327Y20264D01*
X60367D01*
X60367Y20264D01*
X61067Y20264D01*
X61107Y20264D01*
X61180Y20234D01*
X61236Y20178D01*
X61263Y20113D01*
Y19710D01*
X61266Y19697D01*
X61265Y19684D01*
X61267Y19667D01*
Y19662D01*
X61265Y19645D01*
X61266Y19632D01*
X61263Y19618D01*
Y18710D01*
X61266Y18697D01*
X61265Y18684D01*
X61267Y18667D01*
Y18662D01*
X61265Y18645D01*
X61266Y18632D01*
X61263Y18618D01*
Y17710D01*
X61266Y17697D01*
X61265Y17684D01*
X61267Y17667D01*
Y17662D01*
X61265Y17645D01*
X61266Y17632D01*
X61263Y17618D01*
Y16710D01*
X61266Y16697D01*
X61265Y16684D01*
X61267Y16667D01*
Y16662D01*
X61265Y16645D01*
X61266Y16632D01*
X61263Y16618D01*
Y15710D01*
X61266Y15697D01*
X61265Y15684D01*
X61267Y15667D01*
Y15662D01*
X61265Y15645D01*
X61266Y15632D01*
X61263Y15618D01*
Y12864D01*
X61263Y12825D01*
X61263Y12825D01*
X61263Y12824D01*
X61267Y12805D01*
Y12664D01*
X61271Y12625D01*
X61301Y12553D01*
X61356Y12498D01*
X61428Y12468D01*
X61467Y12464D01*
X61607D01*
X61627Y12460D01*
X61627Y12460D01*
X61627Y12460D01*
X61667Y12460D01*
X65751Y12460D01*
X65767Y12458D01*
X65783Y12460D01*
X66851Y12460D01*
X66867Y12458D01*
X66883Y12460D01*
X67851D01*
X67867Y12458D01*
X67883Y12460D01*
X72877Y12460D01*
X72877Y12460D01*
X72897Y12464D01*
X73167D01*
Y12734D01*
X73171Y12754D01*
X73171Y21410D01*
X73261Y21500D01*
X79143D01*
Y23664D01*
X89495Y23664D01*
D02*
G37*
G36*
X71468Y6554D02*
X71378Y6464D01*
X65167Y6464D01*
X65167Y10864D01*
X66320Y10864D01*
X66330Y10846D01*
X66374Y10737D01*
X66342Y10574D01*
Y9209D01*
X68880D01*
Y10574D01*
X68848Y10737D01*
X68892Y10845D01*
X68902Y10864D01*
X71460Y10864D01*
X71468Y6554D01*
D02*
G37*
G36*
X23313Y31619D02*
X23319Y31614D01*
X23329Y31610D01*
X23342Y31606D01*
X23358Y31603D01*
X23377Y31600D01*
X23425Y31596D01*
X23486Y31595D01*
Y31295D01*
X23454Y31295D01*
X23358Y31288D01*
X23342Y31285D01*
X23329Y31281D01*
X23319Y31276D01*
X23313Y31271D01*
X23310Y31266D01*
Y31625D01*
X23313Y31619D01*
D02*
G37*
G36*
X53545Y9759D02*
X53510Y9723D01*
X53480Y9686D01*
X53453Y9648D01*
X53430Y9610D01*
X53410Y9572D01*
X53394Y9532D01*
X53382Y9493D01*
X53373Y9452D01*
X53368Y9411D01*
X53367Y9369D01*
X52872Y9864D01*
X52914Y9866D01*
X52955Y9871D01*
X52995Y9879D01*
X53035Y9892D01*
X53074Y9908D01*
X53113Y9927D01*
X53151Y9950D01*
X53189Y9977D01*
X53225Y10008D01*
X53262Y10042D01*
X53545Y9759D01*
D02*
G37*
%LPC*%
G36*
X75260Y31789D02*
X73915D01*
X73736Y31753D01*
X73583Y31652D01*
X73482Y31499D01*
X73446Y31320D01*
Y30840D01*
X75260D01*
Y31789D01*
D02*
G37*
G36*
X77205D02*
X75860D01*
Y30840D01*
X77674D01*
Y31320D01*
X77638Y31499D01*
X77537Y31652D01*
X77384Y31753D01*
X77205Y31789D01*
D02*
G37*
G36*
X83843Y31772D02*
Y30800D01*
X84815D01*
X84810Y30839D01*
X84679Y31156D01*
X84470Y31427D01*
X84199Y31636D01*
X83882Y31767D01*
X83843Y31772D01*
D02*
G37*
G36*
X83243Y30200D02*
X82271D01*
X82276Y30161D01*
X82407Y29844D01*
X82616Y29573D01*
X82887Y29364D01*
X83204Y29233D01*
X83243Y29228D01*
Y30200D01*
D02*
G37*
G36*
X77674Y30240D02*
X75860D01*
Y29291D01*
X77205D01*
X77384Y29327D01*
X77537Y29428D01*
X77638Y29581D01*
X77674Y29760D01*
Y30240D01*
D02*
G37*
G36*
X75260D02*
X73446D01*
Y29760D01*
X73482Y29581D01*
X73583Y29428D01*
X73736Y29327D01*
X73915Y29291D01*
X75260D01*
Y30240D01*
D02*
G37*
G36*
X84815Y30200D02*
X83843D01*
Y29228D01*
X83882Y29233D01*
X84199Y29364D01*
X84470Y29573D01*
X84679Y29844D01*
X84810Y30161D01*
X84815Y30200D01*
D02*
G37*
G36*
X85643Y30371D02*
X85643Y30371D01*
X85363Y30255D01*
X85123Y30070D01*
X84938Y29830D01*
X84823Y29551D01*
X84823Y29550D01*
X85643D01*
Y30371D01*
D02*
G37*
G36*
X83243Y31772D02*
X83204Y31767D01*
X82887Y31636D01*
X82616Y31427D01*
X82407Y31156D01*
X82276Y30839D01*
X82271Y30800D01*
X83243D01*
Y31772D01*
D02*
G37*
G36*
X86243Y30371D02*
Y29550D01*
X87063D01*
X87063Y29551D01*
X86947Y29830D01*
X86763Y30070D01*
X86523Y30255D01*
X86243Y30371D01*
X86243Y30371D01*
D02*
G37*
G36*
X68880Y16569D02*
X67911D01*
Y14730D01*
X68406D01*
X68587Y14766D01*
X68741Y14869D01*
X68844Y15023D01*
X68880Y15204D01*
Y16569D01*
D02*
G37*
G36*
X67311D02*
X66342D01*
Y15204D01*
X66378Y15023D01*
X66481Y14869D01*
X66635Y14766D01*
X66816Y14730D01*
X67311D01*
Y16569D01*
D02*
G37*
G36*
X68406Y19008D02*
X67911D01*
Y17169D01*
X68880D01*
Y18534D01*
X68844Y18716D01*
X68741Y18870D01*
X68587Y18972D01*
X68406Y19008D01*
D02*
G37*
G36*
X67311D02*
X66816D01*
X66635Y18972D01*
X66481Y18870D01*
X66378Y18716D01*
X66342Y18534D01*
Y17169D01*
X67311D01*
Y19008D01*
D02*
G37*
G36*
X67211Y40298D02*
X66716D01*
X66535Y40262D01*
X66381Y40160D01*
X66278Y40006D01*
X66242Y39824D01*
Y38459D01*
X67211D01*
Y40298D01*
D02*
G37*
G36*
Y37859D02*
X66242D01*
Y36494D01*
X66278Y36313D01*
X66381Y36159D01*
X66535Y36056D01*
X66716Y36020D01*
X67211D01*
Y37859D01*
D02*
G37*
G36*
Y48258D02*
X66716D01*
X66535Y48222D01*
X66381Y48120D01*
X66278Y47966D01*
X66242Y47784D01*
Y46419D01*
X67211D01*
Y48258D01*
D02*
G37*
G36*
X68306D02*
X67811D01*
Y46419D01*
X68781D01*
Y47784D01*
X68744Y47966D01*
X68642Y48120D01*
X68488Y48222D01*
X68306Y48258D01*
D02*
G37*
G36*
X22582Y17365D02*
X22282Y17326D01*
X22002Y17210D01*
X21762Y17025D01*
X21577Y16785D01*
X21462Y16506D01*
X21422Y16205D01*
X21462Y15905D01*
X21577Y15625D01*
X21762Y15385D01*
X22002Y15201D01*
X22282Y15085D01*
X22582Y15045D01*
X22882Y15085D01*
X23162Y15201D01*
X23402Y15385D01*
X23586Y15625D01*
X23702Y15905D01*
X23742Y16205D01*
X23702Y16506D01*
X23586Y16785D01*
X23402Y17025D01*
X23162Y17210D01*
X22882Y17326D01*
X22582Y17365D01*
D02*
G37*
G36*
Y12285D02*
X22282Y12246D01*
X22002Y12130D01*
X21762Y11945D01*
X21577Y11705D01*
X21462Y11425D01*
X21422Y11125D01*
X21462Y10825D01*
X21577Y10545D01*
X21762Y10305D01*
X22002Y10121D01*
X22282Y10005D01*
X22582Y9965D01*
X22882Y10005D01*
X23162Y10121D01*
X23402Y10305D01*
X23586Y10545D01*
X23702Y10825D01*
X23742Y11125D01*
X23702Y11425D01*
X23586Y11705D01*
X23402Y11945D01*
X23162Y12130D01*
X22882Y12246D01*
X22582Y12285D01*
D02*
G37*
G36*
Y14825D02*
X22282Y14786D01*
X22002Y14670D01*
X21762Y14485D01*
X21577Y14245D01*
X21462Y13965D01*
X21422Y13665D01*
X21462Y13365D01*
X21577Y13085D01*
X21762Y12845D01*
X22002Y12661D01*
X22282Y12545D01*
X22582Y12505D01*
X22882Y12545D01*
X23162Y12661D01*
X23402Y12845D01*
X23586Y13085D01*
X23702Y13365D01*
X23742Y13665D01*
X23702Y13965D01*
X23586Y14245D01*
X23402Y14485D01*
X23162Y14670D01*
X22882Y14786D01*
X22582Y14825D01*
D02*
G37*
G36*
X84815Y15200D02*
X83843D01*
Y14228D01*
X83882Y14233D01*
X84199Y14364D01*
X84470Y14573D01*
X84679Y14844D01*
X84810Y15161D01*
X84815Y15200D01*
D02*
G37*
G36*
X85643Y16450D02*
X84823D01*
X84823Y16450D01*
X84938Y16170D01*
X85123Y15930D01*
X85363Y15746D01*
X85643Y15630D01*
X85643Y15630D01*
Y16450D01*
D02*
G37*
G36*
X83243Y15200D02*
X82271D01*
X82276Y15161D01*
X82407Y14844D01*
X82616Y14573D01*
X82887Y14364D01*
X83204Y14233D01*
X83243Y14228D01*
Y15200D01*
D02*
G37*
G36*
X83843Y16772D02*
Y15800D01*
X84815D01*
X84810Y15839D01*
X84679Y16156D01*
X84470Y16427D01*
X84199Y16636D01*
X83882Y16767D01*
X83843Y16772D01*
D02*
G37*
G36*
X83243D02*
X83204Y16767D01*
X82887Y16636D01*
X82616Y16427D01*
X82407Y16156D01*
X82276Y15839D01*
X82271Y15800D01*
X83243D01*
Y16772D01*
D02*
G37*
G36*
X87063Y16450D02*
X86243D01*
Y15630D01*
X86243Y15630D01*
X86523Y15746D01*
X86763Y15930D01*
X86947Y16170D01*
X87063Y16450D01*
X87063Y16450D01*
D02*
G37*
G36*
X7342Y27525D02*
X7042Y27486D01*
X6762Y27370D01*
X6522Y27185D01*
X6337Y26945D01*
X6222Y26666D01*
X6182Y26365D01*
X6222Y26065D01*
X6337Y25785D01*
X6522Y25545D01*
X6762Y25361D01*
X7042Y25245D01*
X7342Y25205D01*
X7642Y25245D01*
X7922Y25361D01*
X8162Y25545D01*
X8346Y25785D01*
X8462Y26065D01*
X8502Y26365D01*
X8462Y26666D01*
X8346Y26945D01*
X8162Y27185D01*
X7922Y27370D01*
X7642Y27486D01*
X7342Y27525D01*
D02*
G37*
G36*
Y24985D02*
X7042Y24946D01*
X6762Y24830D01*
X6522Y24645D01*
X6337Y24405D01*
X6222Y24125D01*
X6182Y23825D01*
X6222Y23525D01*
X6337Y23245D01*
X6522Y23005D01*
X6762Y22821D01*
X7042Y22705D01*
X7342Y22665D01*
X7642Y22705D01*
X7922Y22821D01*
X8162Y23005D01*
X8346Y23245D01*
X8462Y23525D01*
X8502Y23825D01*
X8462Y24125D01*
X8346Y24405D01*
X8162Y24645D01*
X7922Y24830D01*
X7642Y24946D01*
X7342Y24985D01*
D02*
G37*
G36*
X22582D02*
X22282Y24946D01*
X22002Y24830D01*
X21762Y24645D01*
X21577Y24405D01*
X21462Y24125D01*
X21422Y23825D01*
X21462Y23525D01*
X21577Y23245D01*
X21762Y23005D01*
X22002Y22821D01*
X22282Y22705D01*
X22582Y22665D01*
X22882Y22705D01*
X23162Y22821D01*
X23402Y23005D01*
X23565Y23217D01*
X26443D01*
X26469Y23178D01*
X26651Y23056D01*
X26866Y23014D01*
X27081Y23056D01*
X27262Y23178D01*
X27384Y23360D01*
X27427Y23574D01*
X27384Y23789D01*
X27262Y23971D01*
X27081Y24092D01*
X26866Y24135D01*
X26651Y24092D01*
X26469Y23971D01*
X26443Y23931D01*
X23728D01*
X23702Y24125D01*
X23586Y24405D01*
X23402Y24645D01*
X23162Y24830D01*
X22882Y24946D01*
X22582Y24985D01*
D02*
G37*
G36*
X7342Y30065D02*
X7042Y30026D01*
X6762Y29910D01*
X6522Y29725D01*
X6337Y29485D01*
X6222Y29205D01*
X6182Y28905D01*
X6222Y28605D01*
X6337Y28325D01*
X6522Y28085D01*
X6762Y27901D01*
X7042Y27785D01*
X7342Y27745D01*
X7642Y27785D01*
X7922Y27901D01*
X8162Y28085D01*
X8346Y28325D01*
X8462Y28605D01*
X8502Y28905D01*
X8462Y29205D01*
X8346Y29485D01*
X8162Y29725D01*
X7922Y29910D01*
X7642Y30026D01*
X7342Y30065D01*
D02*
G37*
G36*
Y32605D02*
X7042Y32566D01*
X6762Y32450D01*
X6522Y32265D01*
X6337Y32025D01*
X6222Y31746D01*
X6182Y31445D01*
X6222Y31145D01*
X6337Y30865D01*
X6522Y30625D01*
X6762Y30441D01*
X7042Y30325D01*
X7342Y30285D01*
X7642Y30325D01*
X7922Y30441D01*
X8162Y30625D01*
X8346Y30865D01*
X8462Y31145D01*
X8502Y31445D01*
X8462Y31746D01*
X8346Y32025D01*
X8162Y32265D01*
X7922Y32450D01*
X7642Y32566D01*
X7342Y32605D01*
D02*
G37*
G36*
Y17365D02*
X7042Y17326D01*
X6762Y17210D01*
X6522Y17025D01*
X6337Y16785D01*
X6222Y16506D01*
X6182Y16205D01*
X6222Y15905D01*
X6337Y15625D01*
X6522Y15385D01*
X6762Y15201D01*
X7042Y15085D01*
X7342Y15045D01*
X7642Y15085D01*
X7922Y15201D01*
X8162Y15385D01*
X8346Y15625D01*
X8462Y15905D01*
X8502Y16205D01*
X8462Y16506D01*
X8346Y16785D01*
X8162Y17025D01*
X7922Y17210D01*
X7642Y17326D01*
X7342Y17365D01*
D02*
G37*
G36*
Y14825D02*
X7042Y14786D01*
X6762Y14670D01*
X6522Y14485D01*
X6337Y14245D01*
X6222Y13965D01*
X6182Y13665D01*
X6222Y13365D01*
X6337Y13085D01*
X6522Y12845D01*
X6762Y12661D01*
X7042Y12545D01*
X7342Y12505D01*
X7642Y12545D01*
X7922Y12661D01*
X8162Y12845D01*
X8346Y13085D01*
X8462Y13365D01*
X8502Y13665D01*
X8462Y13965D01*
X8346Y14245D01*
X8162Y14485D01*
X7922Y14670D01*
X7642Y14786D01*
X7342Y14825D01*
D02*
G37*
G36*
X8042Y12233D02*
X6642D01*
X6486Y12202D01*
X6354Y12114D01*
X6265Y11981D01*
X6234Y11825D01*
Y10425D01*
X6265Y10269D01*
X6354Y10137D01*
X6486Y10049D01*
X6642Y10017D01*
X8042D01*
X8198Y10049D01*
X8330Y10137D01*
X8419Y10269D01*
X8450Y10425D01*
Y11825D01*
X8419Y11981D01*
X8330Y12114D01*
X8198Y12202D01*
X8042Y12233D01*
D02*
G37*
G36*
X3987Y34055D02*
X2867D01*
X1747D01*
X1747Y34055D01*
X1862Y33775D01*
X2047Y33535D01*
X2287Y33351D01*
X2511Y33258D01*
X2513Y33170D01*
X2501Y33125D01*
X2186Y32995D01*
X1904Y32778D01*
X1688Y32496D01*
X1552Y32168D01*
X1505Y31815D01*
X1552Y31463D01*
X1688Y31134D01*
X1904Y30852D01*
X2186Y30636D01*
X2252Y30609D01*
Y30482D01*
X2186Y30455D01*
X1904Y30238D01*
X1688Y29956D01*
X1552Y29628D01*
X1505Y29275D01*
X1552Y28923D01*
X1688Y28594D01*
X1904Y28312D01*
X2186Y28096D01*
X2252Y28069D01*
Y27942D01*
X2186Y27915D01*
X1904Y27698D01*
X1688Y27416D01*
X1552Y27088D01*
X1505Y26735D01*
X1552Y26383D01*
X1688Y26054D01*
X1904Y25772D01*
X2186Y25556D01*
X2252Y25529D01*
Y25402D01*
X2186Y25375D01*
X1904Y25158D01*
X1688Y24876D01*
X1552Y24548D01*
X1505Y24195D01*
X1552Y23843D01*
X1688Y23514D01*
X1904Y23232D01*
X2024Y23140D01*
X1981Y23013D01*
X1917D01*
X1761Y22982D01*
X1629Y22894D01*
X1540Y22761D01*
X1509Y22605D01*
Y20705D01*
X1540Y20549D01*
X1629Y20417D01*
X1761Y20329D01*
X1917Y20297D01*
X3817D01*
X3973Y20329D01*
X4105Y20417D01*
X4194Y20549D01*
X4225Y20705D01*
Y22605D01*
X4194Y22761D01*
X4105Y22894D01*
X3973Y22982D01*
X3817Y23013D01*
X3753D01*
X3709Y23140D01*
X3830Y23232D01*
X4046Y23514D01*
X4182Y23843D01*
X4229Y24195D01*
X4182Y24548D01*
X4046Y24876D01*
X3830Y25158D01*
X3548Y25375D01*
X3482Y25402D01*
Y25529D01*
X3548Y25556D01*
X3830Y25772D01*
X4046Y26054D01*
X4182Y26383D01*
X4229Y26735D01*
X4182Y27088D01*
X4046Y27416D01*
X3830Y27698D01*
X3548Y27915D01*
X3482Y27942D01*
Y28069D01*
X3548Y28096D01*
X3830Y28312D01*
X4046Y28594D01*
X4182Y28923D01*
X4229Y29275D01*
X4182Y29628D01*
X4046Y29956D01*
X3830Y30238D01*
X3548Y30455D01*
X3482Y30482D01*
Y30609D01*
X3548Y30636D01*
X3830Y30852D01*
X4046Y31134D01*
X4182Y31463D01*
X4229Y31815D01*
X4182Y32168D01*
X4046Y32496D01*
X3830Y32778D01*
X3548Y32995D01*
X3233Y33125D01*
X3221Y33170D01*
X3223Y33258D01*
X3447Y33351D01*
X3687Y33535D01*
X3871Y33775D01*
X3987Y34055D01*
X3987Y34055D01*
D02*
G37*
G36*
X7342Y22445D02*
X7042Y22406D01*
X6762Y22290D01*
X6522Y22105D01*
X6337Y21865D01*
X6222Y21586D01*
X6182Y21285D01*
X6222Y20985D01*
X6337Y20705D01*
X6522Y20465D01*
X6762Y20281D01*
X7042Y20165D01*
X7342Y20125D01*
X7642Y20165D01*
X7922Y20281D01*
X8162Y20465D01*
X8346Y20705D01*
X8462Y20985D01*
X8502Y21285D01*
X8462Y21586D01*
X8346Y21865D01*
X8162Y22105D01*
X7922Y22290D01*
X7642Y22406D01*
X7342Y22445D01*
D02*
G37*
G36*
Y19905D02*
X7042Y19866D01*
X6762Y19750D01*
X6522Y19565D01*
X6337Y19325D01*
X6222Y19045D01*
X6182Y18745D01*
X6222Y18445D01*
X6337Y18165D01*
X6522Y17925D01*
X6762Y17741D01*
X7042Y17625D01*
X7342Y17585D01*
X7642Y17625D01*
X7922Y17741D01*
X8162Y17925D01*
X8346Y18165D01*
X8462Y18445D01*
X8502Y18745D01*
X8462Y19045D01*
X8346Y19325D01*
X8162Y19565D01*
X7922Y19750D01*
X7642Y19866D01*
X7342Y19905D01*
D02*
G37*
G36*
X22282Y43845D02*
X21678D01*
X21752Y43666D01*
X21904Y43468D01*
X22103Y43315D01*
X22282Y43241D01*
Y43845D01*
D02*
G37*
G36*
X23486D02*
X22882D01*
Y43241D01*
X23061Y43315D01*
X23260Y43468D01*
X23412Y43666D01*
X23486Y43845D01*
D02*
G37*
G36*
X22282Y45049D02*
X22103Y44975D01*
X21904Y44823D01*
X21752Y44624D01*
X21678Y44445D01*
X22282D01*
Y45049D01*
D02*
G37*
G36*
X7342Y47845D02*
X7042Y47806D01*
X6762Y47690D01*
X6522Y47505D01*
X6337Y47265D01*
X6222Y46986D01*
X6182Y46685D01*
X6222Y46385D01*
X6337Y46105D01*
X6522Y45865D01*
X6762Y45681D01*
X7042Y45565D01*
X7342Y45525D01*
X7642Y45565D01*
X7922Y45681D01*
X8162Y45865D01*
X8346Y46105D01*
X8462Y46385D01*
X8502Y46685D01*
X8462Y46986D01*
X8346Y47265D01*
X8162Y47505D01*
X7922Y47690D01*
X7642Y47806D01*
X7342Y47845D01*
D02*
G37*
G36*
X22882Y45049D02*
Y44445D01*
X23486D01*
X23412Y44624D01*
X23260Y44823D01*
X23061Y44975D01*
X22882Y45049D01*
D02*
G37*
G36*
X22582Y42765D02*
X22282Y42726D01*
X22002Y42610D01*
X21762Y42425D01*
X21577Y42185D01*
X21462Y41905D01*
X21422Y41605D01*
X21462Y41305D01*
X21577Y41025D01*
X21762Y40785D01*
X22002Y40601D01*
X22282Y40485D01*
X22582Y40445D01*
X22882Y40485D01*
X23162Y40601D01*
X23402Y40785D01*
X23586Y41025D01*
X23702Y41305D01*
X23742Y41605D01*
X23702Y41905D01*
X23586Y42185D01*
X23402Y42425D01*
X23162Y42610D01*
X22882Y42726D01*
X22582Y42765D01*
D02*
G37*
G36*
X7342D02*
X7042Y42726D01*
X6762Y42610D01*
X6522Y42425D01*
X6337Y42185D01*
X6222Y41905D01*
X6182Y41605D01*
X6222Y41305D01*
X6337Y41025D01*
X6522Y40785D01*
X6762Y40601D01*
X7042Y40485D01*
X7342Y40445D01*
X7642Y40485D01*
X7922Y40601D01*
X8162Y40785D01*
X8346Y41025D01*
X8462Y41305D01*
X8502Y41605D01*
X8462Y41905D01*
X8346Y42185D01*
X8162Y42425D01*
X7922Y42610D01*
X7642Y42726D01*
X7342Y42765D01*
D02*
G37*
G36*
Y45305D02*
X7042Y45266D01*
X6762Y45150D01*
X6522Y44965D01*
X6337Y44725D01*
X6222Y44445D01*
X6182Y44145D01*
X6222Y43845D01*
X6337Y43565D01*
X6522Y43325D01*
X6762Y43141D01*
X7042Y43025D01*
X7342Y42985D01*
X7642Y43025D01*
X7922Y43141D01*
X8162Y43325D01*
X8346Y43565D01*
X8462Y43845D01*
X8502Y44145D01*
X8462Y44445D01*
X8346Y44725D01*
X8162Y44965D01*
X7922Y45150D01*
X7642Y45266D01*
X7342Y45305D01*
D02*
G37*
G36*
X22582Y47845D02*
X22282Y47806D01*
X22002Y47690D01*
X21762Y47505D01*
X21577Y47265D01*
X21462Y46986D01*
X21422Y46685D01*
X21462Y46385D01*
X21577Y46105D01*
X21762Y45865D01*
X22002Y45681D01*
X22282Y45565D01*
X22582Y45525D01*
X22882Y45565D01*
X23162Y45681D01*
X23402Y45865D01*
X23586Y46105D01*
X23702Y46385D01*
X23742Y46685D01*
X23702Y46986D01*
X23586Y47265D01*
X23402Y47505D01*
X23162Y47690D01*
X22882Y47806D01*
X22582Y47845D01*
D02*
G37*
G36*
X16447Y54826D02*
X16095Y54780D01*
X15766Y54644D01*
X15484Y54427D01*
X15268Y54145D01*
X15240Y54079D01*
X15113D01*
X15086Y54145D01*
X14870Y54427D01*
X14588Y54644D01*
X14259Y54780D01*
X13907Y54826D01*
X13555Y54780D01*
X13226Y54644D01*
X12944Y54427D01*
X12728Y54145D01*
X12597Y53831D01*
X12553Y53818D01*
X12464Y53821D01*
X12371Y54044D01*
X12187Y54284D01*
X11947Y54469D01*
X11667Y54585D01*
X11667Y54585D01*
Y53464D01*
Y52344D01*
X11667Y52344D01*
X11947Y52460D01*
X12187Y52644D01*
X12371Y52884D01*
X12464Y53108D01*
X12553Y53111D01*
X12597Y53098D01*
X12728Y52783D01*
X12944Y52501D01*
X13226Y52285D01*
X13555Y52149D01*
X13907Y52103D01*
X14259Y52149D01*
X14588Y52285D01*
X14870Y52501D01*
X15086Y52783D01*
X15113Y52849D01*
X15240D01*
X15268Y52783D01*
X15484Y52501D01*
X15766Y52285D01*
X16095Y52149D01*
X16447Y52103D01*
X16799Y52149D01*
X17128Y52285D01*
X17410Y52501D01*
X17502Y52622D01*
X17629Y52579D01*
Y52514D01*
X17660Y52358D01*
X17749Y52226D01*
X17881Y52138D01*
X18037Y52106D01*
X19937D01*
X20093Y52138D01*
X20225Y52226D01*
X20314Y52358D01*
X20345Y52514D01*
Y54414D01*
X20314Y54570D01*
X20225Y54703D01*
X20093Y54791D01*
X19937Y54822D01*
X18037D01*
X17881Y54791D01*
X17749Y54703D01*
X17660Y54570D01*
X17629Y54414D01*
Y54350D01*
X17502Y54307D01*
X17410Y54427D01*
X17128Y54644D01*
X16799Y54780D01*
X16447Y54826D01*
D02*
G37*
G36*
X11067Y54585D02*
X11067Y54585D01*
X10787Y54469D01*
X10547Y54284D01*
X10362Y54044D01*
X10247Y53764D01*
X10247Y53764D01*
X11067D01*
Y54585D01*
D02*
G37*
G36*
Y53164D02*
X10247D01*
X10247Y53164D01*
X10362Y52884D01*
X10547Y52644D01*
X10787Y52460D01*
X11067Y52344D01*
X11067Y52344D01*
Y53164D01*
D02*
G37*
G36*
X3817Y46938D02*
X3167D01*
Y46084D01*
X4021D01*
Y46734D01*
X4005Y46812D01*
X3961Y46878D01*
X3895Y46923D01*
X3817Y46938D01*
D02*
G37*
G36*
X2567D02*
X1917D01*
X1839Y46923D01*
X1773Y46878D01*
X1729Y46812D01*
X1713Y46734D01*
Y46084D01*
X2567D01*
Y46938D01*
D02*
G37*
G36*
X3167Y35476D02*
Y34655D01*
X3987D01*
X3987Y34655D01*
X3871Y34935D01*
X3687Y35175D01*
X3447Y35360D01*
X3167Y35476D01*
X3167Y35476D01*
D02*
G37*
G36*
X2567D02*
X2567Y35476D01*
X2287Y35360D01*
X2047Y35175D01*
X1862Y34935D01*
X1747Y34655D01*
X1747Y34655D01*
X2567D01*
Y35476D01*
D02*
G37*
G36*
X7342Y37685D02*
X7042Y37646D01*
X6762Y37530D01*
X6522Y37345D01*
X6337Y37105D01*
X6222Y36826D01*
X6182Y36525D01*
X6222Y36225D01*
X6337Y35945D01*
X6522Y35705D01*
X6762Y35521D01*
X7042Y35405D01*
X7342Y35365D01*
X7642Y35405D01*
X7922Y35521D01*
X8162Y35705D01*
X8346Y35945D01*
X8462Y36225D01*
X8502Y36525D01*
X8462Y36826D01*
X8346Y37105D01*
X8162Y37345D01*
X7922Y37530D01*
X7642Y37646D01*
X7342Y37685D01*
D02*
G37*
G36*
X22582D02*
X22282Y37646D01*
X22002Y37530D01*
X21762Y37345D01*
X21577Y37105D01*
X21462Y36826D01*
X21422Y36525D01*
X21462Y36225D01*
X21577Y35945D01*
X21762Y35705D01*
X22002Y35521D01*
X22282Y35405D01*
X22582Y35365D01*
X22882Y35405D01*
X23162Y35521D01*
X23402Y35705D01*
X23586Y35945D01*
X23702Y36225D01*
X23742Y36525D01*
X23702Y36826D01*
X23586Y37105D01*
X23402Y37345D01*
X23162Y37530D01*
X22882Y37646D01*
X22582Y37685D01*
D02*
G37*
G36*
X7342Y35145D02*
X7042Y35106D01*
X6762Y34990D01*
X6522Y34805D01*
X6337Y34565D01*
X6222Y34285D01*
X6182Y33985D01*
X6222Y33685D01*
X6337Y33405D01*
X6522Y33165D01*
X6762Y32981D01*
X7042Y32865D01*
X7342Y32825D01*
X7642Y32865D01*
X7922Y32981D01*
X8162Y33165D01*
X8346Y33405D01*
X8462Y33685D01*
X8502Y33985D01*
X8462Y34285D01*
X8346Y34565D01*
X8162Y34805D01*
X7922Y34990D01*
X7642Y35106D01*
X7342Y35145D01*
D02*
G37*
G36*
X22582D02*
X22282Y35106D01*
X22002Y34990D01*
X21762Y34805D01*
X21577Y34565D01*
X21462Y34285D01*
X21422Y33985D01*
X21462Y33685D01*
X21577Y33405D01*
X21762Y33165D01*
X22002Y32981D01*
X22282Y32865D01*
X22582Y32825D01*
X22882Y32865D01*
X23162Y32981D01*
X23402Y33165D01*
X23586Y33405D01*
X23702Y33685D01*
X23742Y33985D01*
X23702Y34285D01*
X23586Y34565D01*
X23402Y34805D01*
X23162Y34990D01*
X22882Y35106D01*
X22582Y35145D01*
D02*
G37*
G36*
X8246Y38765D02*
X7642D01*
Y38161D01*
X7821Y38235D01*
X8020Y38388D01*
X8172Y38586D01*
X8246Y38765D01*
D02*
G37*
G36*
X7642Y39969D02*
Y39365D01*
X8246D01*
X8172Y39544D01*
X8020Y39743D01*
X7821Y39895D01*
X7642Y39969D01*
D02*
G37*
G36*
X7042D02*
X6863Y39895D01*
X6664Y39743D01*
X6512Y39544D01*
X6438Y39365D01*
X7042D01*
Y39969D01*
D02*
G37*
G36*
X2867Y45784D02*
D01*
Y45484D01*
X1713D01*
Y44834D01*
X1729Y44756D01*
X1773Y44690D01*
X1839Y44646D01*
X1917Y44630D01*
X2354D01*
X2379Y44503D01*
X2186Y44424D01*
X1904Y44207D01*
X1688Y43925D01*
X1552Y43597D01*
X1505Y43244D01*
X1552Y42892D01*
X1688Y42563D01*
X1904Y42281D01*
X2186Y42065D01*
X2252Y42038D01*
Y41911D01*
X2186Y41884D01*
X1904Y41667D01*
X1688Y41385D01*
X1552Y41057D01*
X1505Y40704D01*
X1552Y40352D01*
X1688Y40023D01*
X1904Y39741D01*
X2186Y39525D01*
X2252Y39498D01*
Y39371D01*
X2186Y39344D01*
X1904Y39127D01*
X1688Y38845D01*
X1552Y38517D01*
X1505Y38164D01*
X1552Y37812D01*
X1688Y37483D01*
X1904Y37201D01*
X2186Y36985D01*
X2515Y36849D01*
X2867Y36803D01*
X3219Y36849D01*
X3548Y36985D01*
X3830Y37201D01*
X4046Y37483D01*
X4182Y37812D01*
X4229Y38164D01*
X4182Y38517D01*
X4046Y38845D01*
X3830Y39127D01*
X3548Y39344D01*
X3482Y39371D01*
Y39498D01*
X3548Y39525D01*
X3830Y39741D01*
X4046Y40023D01*
X4182Y40352D01*
X4229Y40704D01*
X4182Y41057D01*
X4046Y41385D01*
X3830Y41667D01*
X3548Y41884D01*
X3482Y41911D01*
Y42038D01*
X3548Y42065D01*
X3830Y42281D01*
X4046Y42563D01*
X4182Y42892D01*
X4229Y43244D01*
X4182Y43597D01*
X4046Y43925D01*
X3830Y44207D01*
X3548Y44424D01*
X3355Y44503D01*
X3380Y44630D01*
X3817D01*
X3895Y44646D01*
X3961Y44690D01*
X4005Y44756D01*
X4021Y44834D01*
Y45484D01*
X2867D01*
Y45784D01*
D02*
G37*
G36*
X7042Y38765D02*
X6438D01*
X6512Y38586D01*
X6664Y38388D01*
X6863Y38235D01*
X7042Y38161D01*
Y38765D01*
D02*
G37*
G36*
X22582Y40225D02*
X22282Y40186D01*
X22002Y40070D01*
X21762Y39885D01*
X21577Y39645D01*
X21462Y39366D01*
X21422Y39065D01*
X21462Y38765D01*
X21577Y38485D01*
X21762Y38245D01*
X22002Y38061D01*
X22282Y37945D01*
X22582Y37905D01*
X22882Y37945D01*
X23162Y38061D01*
X23402Y38245D01*
X23586Y38485D01*
X23702Y38765D01*
X23742Y39065D01*
X23702Y39366D01*
X23586Y39645D01*
X23402Y39885D01*
X23162Y40070D01*
X22882Y40186D01*
X22582Y40225D01*
D02*
G37*
G36*
X83243Y41804D02*
X82443D01*
X82365Y41788D01*
X82299Y41744D01*
X82255Y41678D01*
X82239Y41600D01*
Y40800D01*
X83243D01*
Y41804D01*
D02*
G37*
G36*
X84643D02*
X83843D01*
Y40800D01*
X84847D01*
Y41600D01*
X84831Y41678D01*
X84787Y41744D01*
X84721Y41788D01*
X84643Y41804D01*
D02*
G37*
G36*
X83243Y40200D02*
X82239D01*
Y39400D01*
X82255Y39322D01*
X82299Y39256D01*
X82365Y39212D01*
X82443Y39196D01*
X83243D01*
Y40200D01*
D02*
G37*
G36*
X86243Y40371D02*
Y39550D01*
X87063D01*
X87063Y39550D01*
X86947Y39830D01*
X86763Y40070D01*
X86523Y40255D01*
X86243Y40371D01*
X86243Y40371D01*
D02*
G37*
G36*
X27287Y44785D02*
X27287Y44785D01*
X27007Y44669D01*
X26767Y44484D01*
X26582Y44244D01*
X26467Y43965D01*
X26467Y43964D01*
X27287D01*
Y44785D01*
D02*
G37*
G36*
Y45904D02*
X26467D01*
X26467Y45904D01*
X26582Y45624D01*
X26767Y45384D01*
X27007Y45200D01*
X27287Y45084D01*
X27287Y45084D01*
Y45904D01*
D02*
G37*
G36*
Y43364D02*
X26467D01*
X26467Y43364D01*
X26582Y43084D01*
X26767Y42844D01*
X27007Y42660D01*
X27287Y42544D01*
X27287Y42544D01*
Y43364D01*
D02*
G37*
G36*
Y42245D02*
X27287Y42245D01*
X27007Y42129D01*
X26767Y41944D01*
X26582Y41704D01*
X26467Y41424D01*
X26467Y41424D01*
X27287D01*
Y42245D01*
D02*
G37*
G36*
X56667Y48871D02*
Y48050D01*
X57487D01*
X57487Y48050D01*
X57371Y48330D01*
X57187Y48570D01*
X56947Y48755D01*
X56667Y48871D01*
X56667Y48871D01*
D02*
G37*
G36*
X56067D02*
X56067Y48871D01*
X55787Y48755D01*
X55547Y48570D01*
X55362Y48330D01*
X55247Y48050D01*
X55247Y48050D01*
X56067D01*
Y48871D01*
D02*
G37*
G36*
X27287Y48444D02*
X26467D01*
X26467Y48444D01*
X26582Y48164D01*
X26767Y47924D01*
X27007Y47740D01*
X27287Y47624D01*
X27287Y47624D01*
Y48444D01*
D02*
G37*
G36*
Y49865D02*
X27287Y49865D01*
X27007Y49749D01*
X26767Y49564D01*
X26582Y49324D01*
X26467Y49044D01*
X26467Y49044D01*
X27287D01*
Y49865D01*
D02*
G37*
G36*
X56067Y47450D02*
X55247D01*
X55247Y47450D01*
X55362Y47170D01*
X55547Y46930D01*
X55787Y46746D01*
X56067Y46630D01*
X56067Y46630D01*
Y47450D01*
D02*
G37*
G36*
X57487D02*
X56667D01*
Y46630D01*
X56667Y46630D01*
X56947Y46746D01*
X57187Y46930D01*
X57371Y47170D01*
X57487Y47450D01*
X57487Y47450D01*
D02*
G37*
G36*
X27287Y47325D02*
X27287Y47325D01*
X27007Y47209D01*
X26767Y47024D01*
X26582Y46784D01*
X26467Y46505D01*
X26467Y46504D01*
X27287D01*
Y47325D01*
D02*
G37*
G36*
Y40824D02*
X26467D01*
X26467Y40824D01*
X26582Y40544D01*
X26767Y40304D01*
X27007Y40120D01*
X27287Y40004D01*
X27287Y40004D01*
Y40824D01*
D02*
G37*
G36*
Y35744D02*
X26467D01*
X26467Y35744D01*
X26582Y35464D01*
X26767Y35224D01*
X27007Y35040D01*
X27287Y34924D01*
X27287Y34924D01*
Y35744D01*
D02*
G37*
G36*
Y33204D02*
X26467D01*
X26467Y33204D01*
X26582Y32924D01*
X26767Y32684D01*
X27007Y32500D01*
X27287Y32384D01*
X27287Y32384D01*
Y33204D01*
D02*
G37*
G36*
Y32085D02*
X27287Y32085D01*
X27007Y31969D01*
X26767Y31784D01*
X26582Y31544D01*
X26467Y31264D01*
X26467Y31264D01*
X27287D01*
Y32085D01*
D02*
G37*
G36*
Y34625D02*
X27287Y34625D01*
X27007Y34509D01*
X26767Y34324D01*
X26582Y34084D01*
X26467Y33805D01*
X26467Y33804D01*
X27287D01*
Y34625D01*
D02*
G37*
G36*
Y39705D02*
X27287Y39705D01*
X27007Y39589D01*
X26767Y39404D01*
X26582Y39164D01*
X26467Y38884D01*
X26467Y38884D01*
X27287D01*
Y39705D01*
D02*
G37*
G36*
Y37165D02*
X27287Y37165D01*
X27007Y37049D01*
X26767Y36864D01*
X26582Y36624D01*
X26467Y36345D01*
X26467Y36344D01*
X27287D01*
Y37165D01*
D02*
G37*
G36*
Y38284D02*
X26467D01*
X26467Y38284D01*
X26582Y38004D01*
X26767Y37764D01*
X27007Y37580D01*
X27287Y37464D01*
X27287Y37464D01*
Y38284D01*
D02*
G37*
G36*
X87063Y36450D02*
X86243D01*
Y35630D01*
X86243Y35630D01*
X86523Y35746D01*
X86763Y35930D01*
X86947Y36170D01*
X87063Y36450D01*
X87063Y36450D01*
D02*
G37*
G36*
X85643D02*
X84823D01*
X84823Y36450D01*
X84938Y36170D01*
X85123Y35930D01*
X85363Y35746D01*
X85643Y35630D01*
X85643Y35630D01*
Y36450D01*
D02*
G37*
G36*
X84815Y35200D02*
X83843D01*
Y34228D01*
X83882Y34233D01*
X84199Y34364D01*
X84470Y34573D01*
X84679Y34844D01*
X84810Y35161D01*
X84815Y35200D01*
D02*
G37*
G36*
X83243D02*
X82271D01*
X82276Y35161D01*
X82407Y34844D01*
X82616Y34573D01*
X82887Y34364D01*
X83204Y34233D01*
X83243Y34228D01*
Y35200D01*
D02*
G37*
G36*
Y36772D02*
X83204Y36767D01*
X82887Y36636D01*
X82616Y36427D01*
X82407Y36156D01*
X82276Y35839D01*
X82271Y35800D01*
X83243D01*
Y36772D01*
D02*
G37*
G36*
X83843Y36772D02*
Y35800D01*
X84815D01*
X84810Y35839D01*
X84679Y36156D01*
X84470Y36427D01*
X84199Y36636D01*
X83882Y36767D01*
X83843Y36772D01*
D02*
G37*
G36*
Y21772D02*
Y20800D01*
X84815D01*
X84810Y20839D01*
X84679Y21156D01*
X84470Y21427D01*
X84199Y21636D01*
X83882Y21767D01*
X83843Y21772D01*
D02*
G37*
G36*
X86243Y20371D02*
Y19550D01*
X87063D01*
X87063Y19551D01*
X86947Y19830D01*
X86763Y20070D01*
X86523Y20255D01*
X86243Y20371D01*
X86243Y20371D01*
D02*
G37*
G36*
X85643D02*
X85643Y20371D01*
X85363Y20255D01*
X85123Y20070D01*
X84938Y19830D01*
X84823Y19551D01*
X84823Y19550D01*
X85643D01*
Y20371D01*
D02*
G37*
G36*
X83243Y20200D02*
X82271D01*
X82276Y20161D01*
X82407Y19844D01*
X82616Y19573D01*
X82887Y19364D01*
X83204Y19233D01*
X83243Y19228D01*
Y20200D01*
D02*
G37*
G36*
Y21772D02*
X83204Y21767D01*
X82887Y21636D01*
X82616Y21427D01*
X82407Y21156D01*
X82276Y20839D01*
X82271Y20800D01*
X83243D01*
Y21772D01*
D02*
G37*
G36*
X84815Y20200D02*
X83843D01*
Y19228D01*
X83882Y19233D01*
X84199Y19364D01*
X84470Y19573D01*
X84679Y19844D01*
X84810Y20161D01*
X84815Y20200D01*
D02*
G37*
G36*
X68880Y8609D02*
X67911D01*
Y6770D01*
X68406D01*
X68587Y6806D01*
X68741Y6909D01*
X68844Y7063D01*
X68880Y7244D01*
Y8609D01*
D02*
G37*
G36*
X67311D02*
X66342D01*
Y7244D01*
X66378Y7063D01*
X66481Y6909D01*
X66635Y6806D01*
X66816Y6770D01*
X67311D01*
Y8609D01*
D02*
G37*
%LPD*%
D10*
X55819Y11264D02*
G03*
X54023Y10520I0J-2540D01*
G01*
X28867Y2864D02*
X32267Y6264D01*
X55819Y11264D02*
X57767D01*
X52867Y9364D02*
X54023Y10520D01*
X27242Y2864D02*
X28867D01*
D11*
X75560Y25460D02*
D03*
Y30540D02*
D03*
D12*
X64380Y28000D02*
D03*
D13*
X67511Y38159D02*
D03*
Y46119D02*
D03*
X67611Y16869D02*
D03*
Y8909D02*
D03*
D14*
X17767Y3764D02*
X20117Y6114D01*
X42717Y17314D02*
X44867Y19464D01*
X39367Y13964D02*
X42717Y17314D01*
X46567Y19464D02*
X48667Y21564D01*
X44867Y19464D02*
X46567D01*
X48667Y21564D02*
Y36964D01*
X50767Y39064D01*
X54267D01*
D15*
X38667Y21364D02*
X42717Y17314D01*
X38667Y21364D02*
Y22164D01*
D16*
X35167Y28664D02*
X36367Y27464D01*
X27867Y28664D02*
X35167D01*
X27167Y27964D02*
X27867Y28664D01*
X23857Y27964D02*
X27167D01*
X22582Y28905D02*
X22916D01*
X23857Y27964D01*
X23267Y27564D02*
X23267D01*
X23667Y27164D01*
X26867D01*
X22783Y26164D02*
X26867D01*
X22582Y26365D02*
X22783Y26164D01*
X24867Y28664D02*
X26867D01*
X35567Y29364D02*
X37367Y27564D01*
X25567Y29364D02*
X35567D01*
X23486Y31445D02*
X25567Y29364D01*
X23367Y30164D02*
X24867Y28664D01*
X22582Y31445D02*
X23486D01*
X26866Y26365D02*
X26867Y26364D01*
X37017Y15414D02*
X39867Y18264D01*
X22582Y23825D02*
X22833Y23574D01*
X26866D01*
X19236Y21614D02*
X20800Y20050D01*
X25125D01*
X26867Y21792D01*
Y21864D01*
X17367Y21614D02*
X19236D01*
D17*
X54317Y43914D02*
X57267Y40964D01*
X48617Y43914D02*
X54317D01*
X45467Y16064D02*
X51367D01*
X39367Y9964D02*
X45467Y16064D01*
X39367Y8250D02*
Y9964D01*
X48867Y18664D02*
X53867Y13664D01*
X55117D01*
X57267Y16264D02*
Y40964D01*
D18*
X51367Y9264D02*
Y16064D01*
Y9264D02*
X55067Y5564D01*
X57567D01*
D19*
X75560Y25460D02*
X75600Y25500D01*
X75700Y25400D02*
X75775Y25475D01*
X78300D01*
X75600Y25500D02*
X75700Y25400D01*
D20*
X83543Y15500D02*
D03*
Y25500D02*
D03*
X83543Y35500D02*
D03*
X83543Y30500D02*
D03*
X83543Y20500D02*
D03*
D21*
X83543Y40500D02*
D03*
D22*
X85943Y36750D02*
D03*
Y39250D02*
D03*
Y16750D02*
D03*
Y19250D02*
D03*
Y26750D02*
D03*
Y29250D02*
D03*
X11367Y53464D02*
D03*
X16447D02*
D03*
X13907D02*
D03*
X2867Y38164D02*
D03*
Y43244D02*
D03*
Y40704D02*
D03*
X2867Y31815D02*
D03*
Y29275D02*
D03*
Y24195D02*
D03*
Y26735D02*
D03*
Y34355D02*
D03*
X39367Y8250D02*
D03*
X56367D02*
D03*
X39367Y47750D02*
D03*
X56367D02*
D03*
X32667Y38584D02*
D03*
Y36044D02*
D03*
X30127Y38584D02*
D03*
Y36044D02*
D03*
Y33504D02*
D03*
Y30964D02*
D03*
X27587D02*
D03*
Y33504D02*
D03*
Y36044D02*
D03*
Y38584D02*
D03*
Y46204D02*
D03*
Y48744D02*
D03*
Y43664D02*
D03*
Y41124D02*
D03*
X30127D02*
D03*
Y43664D02*
D03*
Y48744D02*
D03*
Y46204D02*
D03*
X32667D02*
D03*
Y48744D02*
D03*
Y43664D02*
D03*
Y41124D02*
D03*
D23*
X18987Y53464D02*
D03*
D24*
X2867Y45784D02*
D03*
X2867Y21655D02*
D03*
X32667Y30964D02*
D03*
D25*
X7342Y11125D02*
D03*
D26*
Y13665D02*
D03*
Y16205D02*
D03*
Y18745D02*
D03*
Y21285D02*
D03*
Y28905D02*
D03*
Y26365D02*
D03*
Y23825D02*
D03*
Y36525D02*
D03*
Y33985D02*
D03*
Y31445D02*
D03*
Y44145D02*
D03*
Y41605D02*
D03*
Y39065D02*
D03*
Y46685D02*
D03*
X22582Y11125D02*
D03*
Y46685D02*
D03*
Y39065D02*
D03*
Y41605D02*
D03*
Y44145D02*
D03*
Y31445D02*
D03*
Y33985D02*
D03*
Y36525D02*
D03*
Y23825D02*
D03*
Y26365D02*
D03*
Y28905D02*
D03*
Y21285D02*
D03*
Y18745D02*
D03*
Y16205D02*
D03*
Y13665D02*
D03*
D27*
X32267Y6264D02*
D03*
X28267D02*
D03*
D28*
X32667Y33504D02*
D03*
D29*
X65767Y16500D02*
D03*
X57467Y52264D02*
D03*
X56367D02*
D03*
X55267D02*
D03*
X54167D02*
D03*
X50867D02*
D03*
X51967D02*
D03*
X53067D02*
D03*
Y51164D02*
D03*
Y50064D02*
D03*
X51967D02*
D03*
Y51164D02*
D03*
X50867Y50064D02*
D03*
Y51164D02*
D03*
X54167D02*
D03*
Y50064D02*
D03*
X55267Y51164D02*
D03*
Y50064D02*
D03*
X56367D02*
D03*
Y51164D02*
D03*
X57467Y50064D02*
D03*
Y51164D02*
D03*
X65067Y37064D02*
D03*
Y38164D02*
D03*
Y39264D02*
D03*
X81567Y3264D02*
D03*
X80167D02*
D03*
X59367Y19664D02*
D03*
X17767Y3764D02*
D03*
X20117Y6114D02*
D03*
X38667Y22164D02*
D03*
X51867Y21264D02*
D03*
X50867Y21264D02*
D03*
X51867Y22364D02*
D03*
X50867Y22364D02*
D03*
X39367Y13964D02*
D03*
X54267Y39064D02*
D03*
X27242Y2864D02*
D03*
X79067Y49664D02*
D03*
Y50864D02*
D03*
X76667Y48664D02*
D03*
X77967Y48644D02*
D03*
X71567Y43364D02*
D03*
Y42064D02*
D03*
X71592Y40064D02*
D03*
Y38764D02*
D03*
X77867Y3284D02*
D03*
X76367Y3264D02*
D03*
X74967Y11764D02*
D03*
Y13064D02*
D03*
Y15264D02*
D03*
Y16564D02*
D03*
X69267Y44864D02*
D03*
Y46064D02*
D03*
Y47264D02*
D03*
X70267D02*
D03*
Y46064D02*
D03*
Y44864D02*
D03*
X70567Y7464D02*
D03*
Y8664D02*
D03*
Y9864D02*
D03*
X69567D02*
D03*
Y8664D02*
D03*
Y7464D02*
D03*
X67867Y13164D02*
D03*
Y14164D02*
D03*
X60767Y16664D02*
D03*
Y15664D02*
D03*
X59367Y16664D02*
D03*
Y15664D02*
D03*
X59267Y36336D02*
D03*
X60667D02*
D03*
X59267Y37336D02*
D03*
X60667Y37336D02*
D03*
X60767Y17664D02*
D03*
Y18664D02*
D03*
X59367Y17664D02*
D03*
Y18664D02*
D03*
X60767Y19664D02*
D03*
X65767Y15364D02*
D03*
Y14264D02*
D03*
X66867Y14164D02*
D03*
X65767Y13164D02*
D03*
X66867Y13164D02*
D03*
X56867Y37364D02*
D03*
X54167Y49064D02*
D03*
Y47964D02*
D03*
Y46864D02*
D03*
X53067Y49064D02*
D03*
Y47964D02*
D03*
Y46864D02*
D03*
X51967D02*
D03*
Y47964D02*
D03*
Y49064D02*
D03*
X50867Y46864D02*
D03*
Y47964D02*
D03*
Y49064D02*
D03*
X55667Y14364D02*
D03*
Y13364D02*
D03*
X54667Y13364D02*
D03*
Y14364D02*
D03*
X48467Y44464D02*
D03*
Y43464D02*
D03*
X49467Y43464D02*
D03*
Y44464D02*
D03*
X57567Y5564D02*
D03*
X52867Y9364D02*
D03*
X57767Y11264D02*
D03*
X48967Y18864D02*
D03*
X74942Y38764D02*
D03*
Y40064D02*
D03*
X74967Y42064D02*
D03*
Y43364D02*
D03*
X50867Y35564D02*
D03*
X50867Y33564D02*
D03*
X50867Y34564D02*
D03*
X51867Y35550D02*
D03*
X51867Y33550D02*
D03*
X51867Y34550D02*
D03*
X65767Y7564D02*
D03*
Y8764D02*
D03*
Y9964D02*
D03*
X78300Y25475D02*
D03*
D30*
X67267Y49264D02*
D03*
X64967Y49264D02*
D03*
X65767D02*
D03*
X66467Y49264D02*
D03*
X65767Y48464D02*
D03*
X65767Y47664D02*
D03*
X64967Y48464D02*
D03*
X64967Y46964D02*
D03*
X64967Y47664D02*
D03*
X52867Y28664D02*
D03*
Y27964D02*
D03*
Y27264D02*
D03*
Y26564D02*
D03*
Y25864D02*
D03*
Y25164D02*
D03*
Y29364D02*
D03*
Y30064D02*
D03*
Y30764D02*
D03*
X51467Y30764D02*
D03*
X50767Y30764D02*
D03*
X52167Y30764D02*
D03*
X51467Y30064D02*
D03*
X50767Y30064D02*
D03*
X52167Y30064D02*
D03*
X51467Y29364D02*
D03*
X50767Y29364D02*
D03*
X52167Y29364D02*
D03*
X38517Y32914D02*
D03*
X36392Y30989D02*
D03*
X23267Y27564D02*
D03*
X26867Y27164D02*
D03*
X36367Y27464D02*
D03*
X37367Y27564D02*
D03*
X42442Y23789D02*
D03*
X39167Y23739D02*
D03*
X39817Y26639D02*
D03*
X26867Y28664D02*
D03*
X51467Y25164D02*
D03*
X50767Y25164D02*
D03*
X51467Y25864D02*
D03*
X50767Y25864D02*
D03*
X52167Y25864D02*
D03*
Y25164D02*
D03*
X29842Y24964D02*
D03*
X39167Y32189D02*
D03*
X37867Y32239D02*
D03*
X48567Y3864D02*
D03*
Y4589D02*
D03*
X32592Y12364D02*
D03*
X33967Y19864D02*
D03*
X50167Y6764D02*
D03*
X50242Y14364D02*
D03*
X47967Y10464D02*
D03*
X49292Y4564D02*
D03*
X52142Y4764D02*
D03*
X17367Y21614D02*
D03*
X26866Y23574D02*
D03*
X26867Y26164D02*
D03*
X23367Y30164D02*
D03*
X39867Y18264D02*
D03*
X37017Y15414D02*
D03*
X52167Y26564D02*
D03*
X50767Y26564D02*
D03*
X51467Y26564D02*
D03*
X52167Y27264D02*
D03*
X50767Y27264D02*
D03*
X51467Y27264D02*
D03*
X52167Y27964D02*
D03*
X50767Y27964D02*
D03*
X51467Y27964D02*
D03*
X52167Y28664D02*
D03*
X50767Y28664D02*
D03*
X51467Y28664D02*
D03*
X52167Y6364D02*
D03*
X26867Y21864D02*
D03*
X48567Y5314D02*
D03*
X49292Y5289D02*
D03*
X50017Y5264D02*
D03*
Y4539D02*
D03*
X46600Y30866D02*
D03*
X20200Y12675D02*
D03*
M02*
